<?xml version="1.0" encoding="UTF-8" standalone="no"?>
<!-- Created with Inkscape (http://www.inkscape.org/) -->

<svg
   xmlns:dc="http://purl.org/dc/elements/1.1/"
   xmlns:cc="http://creativecommons.org/ns#"
   xmlns:rdf="http://www.w3.org/1999/02/22-rdf-syntax-ns#"
   xmlns:svg="http://www.w3.org/2000/svg"
   xmlns="http://www.w3.org/2000/svg"
   version="1.1"
   width="524.22449"
   height="524.22375"
   viewBox="0 0 419.37961 419.37898"
   id="svg2"
   style="fill-rule:evenodd">
  <metadata
     id="metadata144">
    <rdf:RDF>
      <cc:Work
         rdf:about="">
        <dc:format>image/svg+xml</dc:format>
        <dc:type
           rdf:resource="http://purl.org/dc/dcmitype/StillImage" />
        <dc:title></dc:title>
      </cc:Work>
    </rdf:RDF>
  </metadata>
  <defs
     id="defs4">
    <marker
       markerUnits="strokeWidth"
       refX="0"
       refY="5"
       markerWidth="4"
       markerHeight="3"
       orient="auto"
       viewBox="0 0 10 10"
       id="ArrowEnd">
      <path
         d="M 0,0 10,5 0,10 z"
         id="path7" />
    </marker>
    <marker
       markerUnits="strokeWidth"
       refX="10"
       refY="5"
       markerWidth="4"
       markerHeight="3"
       orient="auto"
       viewBox="0 0 10 10"
       id="ArrowStart">
      <path
         d="M 10,0 0,5 10,10 z"
         id="path10" />
    </marker>
  </defs>
  <g
     transform="translate(-87.9854,-211.20304)"
     id="g12"
     style="fill:#ffffff">
    <g
       id="g14"
       style="fill:#ffffff">
      <g
         id="g16"
         style="fill:#ffffff">
        <path
           d="m 462.024,354.252 -1.869,-4.445 10.235,-1.642 -8.366,6.087 z m -6.612,10.96 2.963,-1.246 -0.702,-1.671 16.274,-12.519 -2.062,-4.903 -20.342,2.85 -0.679,-1.616 -2.963,1.247 1.744,4.147 7.376,-1.231 2.458,5.845 -6.016,4.464 1.949,4.633 z"
           id="path18"
           style="fill:#ffffff;stroke:none" />
        <path
           d="m 446.692,344.91 2.787,-1.602 -0.975,-1.697 4.84,-2.78 c 2.254,-1.296 2.862,-3.465 1.654,-5.568 l -1.15,-2.001 8.143,0.477 1.34,2.331 2.812,-1.616 -2.271,-3.952 -12.053,-0.186 8.982,-5.16 -2.81,-4.89 -2.812,1.616 0.975,1.697 -14.404,8.276 -0.975,-1.698 -2.787,1.601 2.809,4.89 8.665,-4.978 2.388,4.155 c 0.495,0.862 0.166,1.522 -0.923,2.148 l -7.044,4.047 2.809,4.89 z"
           id="path20"
           style="fill:#ffffff;stroke:none" />
        <path
           d="m 438.885,323.818 4.057,-2.968 c 2.099,-1.535 2.458,-3.717 1.026,-5.674 l -2.812,-3.845 c -0.586,-0.801 -0.309,-1.511 0.701,-2.25 l 2.166,-1.584 c 1.034,-0.756 1.748,-0.771 2.334,0.031 l 2.812,3.844 -2.379,1.74 2.139,2.924 4.997,-3.654 -5.589,-7.642 c -1.432,-1.957 -3.661,-2.282 -5.756,-0.75 l -3.79,2.772 c -2.099,1.535 -2.464,3.758 -1.032,5.715 l 2.794,3.821 c 0.587,0.802 0.333,1.494 -0.705,2.253 l -2.382,1.743 c -1.014,0.741 -1.775,0.791 -2.361,-0.011 l -3.071,-4.198 2.878,-2.105 -2.226,-3.043 -5.472,4.003 5.952,8.137 c 1.432,1.957 3.643,2.259 5.719,0.741 z"
           id="path22"
           style="fill:#ffffff;stroke:none" />
        <path
           d="m 439.543,298.811 2.333,-2.253 -3.734,-3.868 -9.789,9.453 c -0.714,0.69 -1.494,1.565 -2.315,2.643 l 6.237,-18.17 -4.039,-4.183 -2.333,2.253 1.36,1.409 -11.95,11.539 -1.36,-1.408 -2.312,2.233 3.735,3.867 9.767,-9.432 c 0.715,-0.69 1.515,-1.585 2.361,-2.686 l -6.019,18.446 2.436,2.522 14.262,-13.773 1.36,1.408 z m 3.124,-10.815 -2.518,-2.607 -5.048,1.545 2.01,2.081 5.556,-1.019 z"
           id="path24"
           style="fill:#ffffff;stroke:none" />
        <path
           d="m 410.131,297.09 2.033,-2.489 -1.403,-1.146 8.51,-18.687 -4.118,-3.364 -16.635,12.049 -1.358,-1.109 -2.033,2.49 3.485,2.847 5.938,-4.545 4.911,4.012 -3.223,6.762 3.893,3.18 z m 0.705,-12.781 -3.734,-3.05 8.272,-6.247 -4.538,9.297 z"
           id="path26"
           style="fill:#ffffff;stroke:none" />
        <path
           d="m 404.81,267.367 1.691,-2.768 -4.588,-2.803 -7.094,11.612 c -0.518,0.847 -1.053,1.89 -1.577,3.14 l 1.465,-19.155 -4.962,-3.032 -1.691,2.768 1.67,1.021 -8.661,14.176 -1.67,-1.021 -1.676,2.743 4.588,2.803 7.079,-11.587 c 0.518,-0.848 1.068,-1.916 1.609,-3.194 l -1.183,19.367 2.992,1.828 10.337,-16.919 1.671,1.021 z"
           id="path28"
           style="fill:#ffffff;stroke:none" />
        <path
           d="m 374.711,272.413 3.005,-6.525 -3.264,-1.503 -1.661,3.605 -6.821,-3.141 16.786,-10.881 1.235,-2.68 -13.696,-6.308 -2.98,6.472 3.291,1.516 1.624,-3.526 6.476,2.982 -16.815,10.803 -1.246,2.707 14.066,6.479 z"
           id="path30"
           style="fill:#ffffff;stroke:none" />
        <path
           d="m 355.432,258.524 c -0.405,1.19 -0.971,1.677 -1.912,1.357 l -4.15,-1.41 c -0.941,-0.319 -1.121,-1.06 -0.717,-2.249 l 4.132,-12.165 c 0.412,-1.213 0.988,-1.635 1.929,-1.315 l 4.15,1.41 c 0.94,0.319 1.112,0.995 0.7,2.208 l -4.132,12.164 z m 3.213,2.08 4.723,-13.903 c 0.836,-2.463 -0.141,-4.492 -2.437,-5.272 l -6.198,-2.106 c -2.296,-0.78 -4.307,0.234 -5.144,2.697 l -4.723,13.903 c -0.827,2.435 0.15,4.464 2.446,5.244 l 6.198,2.106 c 2.296,0.779 4.307,-0.235 5.135,-2.669 z"
           id="path32"
           style="fill:#ffffff;stroke:none" />
        <path
           d="m 339.936,243.563 c -0.249,1.226 -0.772,1.746 -1.746,1.549 l -4.639,-0.941 1.316,-6.487 4.639,0.941 c 0.974,0.198 1.259,0.852 1.004,2.107 l -0.574,2.831 z m 3.574,0.903 0.789,-3.889 c 0.516,-2.545 -0.683,-4.427 -3.06,-4.91 l -11.254,-2.283 -0.645,3.179 1.919,0.389 -3.303,16.281 -1.918,-0.389 -0.64,3.15 7.647,1.551 0.639,-3.15 -2.12,-0.43 1.377,-6.787 5.155,1.045 c 2.721,0.552 4.822,-0.84 5.414,-3.757 z"
           id="path34"
           style="fill:#ffffff;stroke:none" />
        <path
           d="m 302.662,243.531 -4.822,-0.063 2.587,-10.038 2.235,10.101 z m 7.403,10.442 0.042,-3.214 -1.812,-0.023 -4.97,-19.923 -5.318,-0.069 -5.519,19.785 -1.753,-0.023 -0.042,3.214 4.499,0.059 1.819,-7.253 6.341,0.083 1.687,7.299 5.026,0.065 z"
           id="path36"
           style="fill:#ffffff;stroke:none" />
        <path
           d="m 288.438,253.801 -0.352,-3.195 -1.946,0.215 -0.611,-5.548 c -0.285,-2.585 -2.029,-4.01 -4.44,-3.744 l -2.295,0.252 3.697,-7.271 2.673,-0.295 -0.355,-3.224 -4.531,0.499 -4.995,10.972 -1.134,-10.297 -5.606,0.618 0.355,3.223 1.946,-0.214 1.819,16.513 -1.946,0.214 0.352,3.195 5.605,-0.617 -1.094,-9.934 4.764,-0.525 c 0.987,-0.108 1.461,0.457 1.599,1.706 l 0.889,8.075 5.606,-0.618 z"
           id="path38"
           style="fill:#ffffff;stroke:none" />
        <path
           d="m 268.143,256.357 -0.629,-3.152 -1.948,0.389 -3.253,-16.291 1.949,-0.389 -0.635,-3.181 -7.479,1.493 0.635,3.181 1.92,-0.383 3.252,16.29 -1.92,0.384 0.629,3.152 7.479,-1.493 z"
           id="path40"
           style="fill:#ffffff;stroke:none" />
        <path
           d="m 252.101,239.4 -0.953,-3.1 -5.139,1.58 4,13.007 c 0.292,0.949 0.72,2.041 1.309,3.261 l -13.381,-13.785 -5.558,1.709 0.954,3.101 1.871,-0.576 4.884,15.878 -1.872,0.576 0.945,3.072 5.139,-1.58 -3.991,-12.978 c -0.292,-0.95 -0.728,-2.07 -1.328,-3.322 l 13.726,13.714 3.352,-1.031 -5.829,-18.95 1.871,-0.576 z"
           id="path42"
           style="fill:#ffffff;stroke:none" />
        <path
           d="m 236.056,265.399 -1.358,-2.913 -1.775,0.827 -7.032,-15.082 1.774,-0.828 -1.371,-2.939 -5.111,2.383 4.267,9.15 -6.224,2.902 -4.267,-9.15 -5.111,2.383 1.371,2.94 1.774,-0.828 7.033,15.083 -1.774,0.827 1.358,2.914 5.111,-2.384 -4.26,-9.137 6.224,-2.902 4.26,9.137 5.111,-2.383 z"
           id="path44"
           style="fill:#ffffff;stroke:none" />
        <path
           d="m 216.382,274.785 -3.774,-6.249 -2.777,1.677 2.113,3.497 -4.878,2.946 c -0.851,0.514 -1.533,0.175 -2.183,-0.901 l -6.641,-10.997 c -0.663,-1.096 -0.615,-1.808 0.236,-2.322 l 4.877,-2.946 2.068,3.423 2.776,-1.677 -3.744,-6.199 -8.579,5.182 c -2.077,1.253 -2.596,3.445 -1.252,5.671 l 7.591,12.569 c 1.33,2.201 3.511,2.761 5.587,1.508 l 8.58,-5.182 z"
           id="path46"
           style="fill:#ffffff;stroke:none" />
        <path
           d="m 201.45,284.201 -4.515,-5.78 -2.579,2.015 2.536,3.246 -5.595,4.372 -4.408,-5.642 5.803,-4.533 -1.907,-2.441 -5.803,4.534 -3.913,-5.009 5.412,-4.227 2.405,3.078 2.532,-1.98 -4.401,-5.633 -12.389,9.678 1.997,2.556 1.543,-1.205 10.228,13.091 -1.543,1.205 1.979,2.533 12.618,-9.858 z"
           id="path48"
           style="fill:#ffffff;stroke:none" />
        <path
           d="m 175.204,283.878 -4.542,-4.625 -12.74,12.508 4.542,4.626 2.439,-2.395 -2.269,-2.311 2.607,-2.559 11.638,11.854 -1.522,1.494 2.252,2.294 5.713,-5.61 -2.252,-2.293 -1.543,1.515 -11.638,-11.854 2.606,-2.559 2.269,2.311 2.44,-2.396 z"
           id="path50"
           style="fill:#ffffff;stroke:none" />
        <path
           d="m 172.472,310.072 -2.449,-2.082 -1.287,1.514 -12.655,-10.762 1.287,-1.514 -2.471,-2.101 -4.941,5.81 2.471,2.101 1.269,-1.491 12.655,10.762 -1.269,1.491 2.449,2.082 4.941,-5.81 z"
           id="path52"
           style="fill:#ffffff;stroke:none" />
        <path
           d="m 165.209,318.789 -6.409,-4.492 -1.912,2.728 3.777,2.647 -3.522,5.025 -13.604,-9.534 1.225,-1.747 -2.657,-1.862 -4.461,6.366 2.656,1.861 1.124,-1.603 13.604,9.534 -1.124,1.603 2.633,1.845 8.67,-12.371 z"
           id="path54"
           style="fill:#ffffff;stroke:none" />
        <path
           d="m 148.293,334.941 c 1.109,0.59 1.499,1.227 1.032,2.105 l -2.058,3.869 c -0.466,0.878 -1.226,0.937 -2.335,0.347 l -11.344,-6.032 c -1.131,-0.601 -1.455,-1.237 -0.988,-2.114 l 2.058,-3.87 c 0.466,-0.877 1.161,-0.938 2.292,-0.337 l 11.343,6.032 z m 2.568,-2.837 -12.964,-6.894 c -2.297,-1.221 -4.457,-0.583 -5.595,1.559 l -3.074,5.779 c -1.138,2.141 -0.46,4.289 1.836,5.51 l 12.965,6.894 c 2.27,1.207 4.43,0.569 5.569,-1.573 l 3.073,-5.779 c 1.138,-2.141 0.46,-4.289 -1.81,-5.496 z"
           id="path56"
           style="fill:#ffffff;stroke:none" />
        <path
           d="m 130.508,348.13 c 1.167,0.453 1.591,1.056 1.232,1.982 l -1.713,4.413 -6.17,-2.394 1.712,-4.413 c 0.36,-0.927 1.053,-1.097 2.247,-0.633 l 2.692,1.045 z m 1.496,-3.369 -3.7,-1.436 c -2.421,-0.94 -4.479,-0.077 -5.357,2.184 l -4.155,10.706 3.024,1.173 0.709,-1.825 15.486,6.01 -0.708,1.825 2.997,1.163 2.823,-7.273 -2.997,-1.163 -0.782,2.016 -6.457,-2.506 1.903,-4.903 c 1.005,-2.588 -0.012,-4.895 -2.786,-5.971 z"
           id="path58"
           style="fill:#ffffff;stroke:none" />
        <path
           d="m 467.114,401.441 -3.238,0.187 0.246,4.259 9.707,3.946 -9.185,5.069 0.267,4.609 3.238,-0.188 -0.113,-1.954 9.287,-5.748 6.997,-0.405 0.121,2.1 3.209,-0.185 -0.452,-7.819 -3.209,0.186 0.118,2.042 -7.172,0.416 -9.708,-4.561 -0.113,-1.954 z"
           id="path60"
           style="fill:#ffffff;stroke:none" />
        <path
           d="m 487.889,423.495 -13.225,-0.554 -0.307,7.328 3.24,0.136 0.159,-3.796 6.774,0.284 -0.238,5.693 c -0.042,0.993 -0.702,1.375 -1.957,1.322 l -12.836,-0.537 c -1.28,-0.054 -1.847,-0.487 -1.805,-1.48 l 0.238,-5.693 3.786,0.159 0.138,-3.3 -7.027,-0.294 -0.421,10.073 c -0.101,2.423 1.438,4.067 4.032,4.175 l 14.676,0.615 c 2.569,0.107 4.24,-1.402 4.342,-3.825 l 0.431,-10.306 z"
           id="path62"
           style="fill:#ffffff;stroke:none" />
        <path
           d="m 481.002,446.674 c 1.24,0.199 1.815,0.676 1.658,1.657 l -0.694,4.327 c -0.157,0.981 -0.857,1.283 -2.098,1.085 l -12.685,-2.034 c -1.265,-0.203 -1.777,-0.699 -1.62,-1.68 l 0.694,-4.328 c 0.157,-0.981 0.794,-1.264 2.059,-1.061 l 12.686,2.034 z m 1.511,-3.517 -14.499,-2.324 c -2.568,-0.412 -4.405,0.892 -4.788,3.287 l -1.037,6.463 c -0.383,2.395 0.954,4.207 3.522,4.619 l 14.498,2.324 c 2.539,0.407 4.376,-0.897 4.76,-3.291 l 1.036,-6.463 c 0.384,-2.395 -0.954,-4.207 -3.492,-4.615 z"
           id="path64"
           style="fill:#ffffff;stroke:none" />
        <path
           d="m 483.264,462.956 -7.566,-2.003 -0.853,3.22 4.458,1.181 -1.571,5.931 -16.058,-4.253 0.546,-2.062 -3.136,-0.83 -1.99,7.513 3.136,0.831 0.501,-1.893 16.058,4.253 -0.501,1.893 3.107,0.823 3.869,-14.604 z"
           id="path66"
           style="fill:#ffffff;stroke:none" />
        <path
           d="m 471.163,485.346 c 1.175,0.446 1.641,1.029 1.288,1.958 l -1.554,4.098 c -0.353,0.93 -1.099,1.084 -2.274,0.638 l -12.012,-4.557 c -1.197,-0.455 -1.599,-1.045 -1.246,-1.974 l 1.555,-4.097 c 0.352,-0.929 1.034,-1.077 2.231,-0.623 l 12.012,4.557 z m 2.191,-3.137 L 459.625,477 c -2.432,-0.923 -4.494,-0.017 -5.354,2.25 l -2.322,6.12 c -0.861,2.268 0.082,4.313 2.514,5.235 l 13.728,5.209 c 2.405,0.912 4.467,0.007 5.327,-2.261 l 2.322,-6.119 c 0.861,-2.268 -0.082,-4.313 -2.486,-5.225 z"
           id="path68"
           style="fill:#ffffff;stroke:none" />
        <path
           d="m 451.969,493.519 -2.843,-1.562 -2.589,4.712 11.926,6.553 c 0.871,0.478 1.937,0.964 3.21,1.43 l -19.202,-0.582 -2.801,5.097 2.843,1.561 0.943,-1.716 14.559,8 -0.943,1.716 2.817,1.548 2.589,-4.712 -11.899,-6.538 c -0.871,-0.479 -1.963,-0.979 -3.266,-1.461 l 19.401,0.29 1.689,-3.073 -17.377,-9.547 0.943,-1.716 z"
           id="path70"
           style="fill:#ffffff;stroke:none" />
        <path
           d="m 456.417,525.965 -2.581,-1.917 -1.167,1.571 -13.359,-9.924 1.168,-1.571 -2.604,-1.935 -3.363,4.528 8.104,6.02 -4.095,5.513 -8.104,-6.021 -3.363,4.527 2.603,1.934 1.168,-1.571 13.358,9.924 -1.167,1.571 2.58,1.917 3.364,-4.527 -8.093,-6.012 4.095,-5.512 8.092,6.012 3.364,-4.527 z"
           id="path72"
           style="fill:#ffffff;stroke:none" />
        <path
           d="m 441.418,545.474 -5.404,-4.908 -2.181,2.401 3.025,2.747 -3.831,4.218 c -0.668,0.735 -1.419,0.606 -2.349,-0.239 l -9.51,-8.638 c -0.948,-0.861 -1.106,-1.557 -0.438,-2.293 l 3.831,-4.217 2.96,2.688 2.181,-2.401 -5.361,-4.869 -6.739,7.419 c -1.631,1.795 -1.502,4.043 0.423,5.792 l 10.869,9.873 c 1.904,1.729 4.154,1.642 5.785,-0.154 l 6.739,-7.419 z"
           id="path74"
           style="fill:#ffffff;stroke:none" />
        <path
           d="m 427.292,560.2 -4.766,-5.574 -2.487,2.127 2.677,3.131 -5.397,4.615 -4.652,-5.442 5.596,-4.785 -2.012,-2.354 -5.597,4.785 -4.13,-4.83 5.219,-4.463 2.538,2.969 2.443,-2.089 -4.646,-5.434 -11.949,10.216 2.108,2.466 1.488,-1.273 10.796,12.626 -1.488,1.273 2.089,2.443 12.17,-10.407 z"
           id="path76"
           style="fill:#ffffff;stroke:none" />
        <path
           d="m 401.453,560.232 -3.601,-5.39 -14.845,9.919 3.601,5.39 2.843,-1.9 -1.799,-2.693 3.037,-2.029 9.229,13.813 -1.774,1.185 1.786,2.672 6.657,-4.448 -1.785,-2.672 -1.799,1.201 -9.229,-13.813 3.037,-2.029 1.8,2.693 2.842,-1.899 z"
           id="path78"
           style="fill:#ffffff;stroke:none" />
        <path
           d="m 374.541,577.391 -2.891,-6.538 -13.924,6.157 1.312,2.966 1.791,-0.792 6.718,15.193 -1.79,0.792 1.3,2.94 7.189,-3.179 -1.3,-2.94 -2.031,0.898 -2.836,-6.414 6.974,-3.084 -1.311,-2.966 -6.975,3.084 -2.571,-5.813 5.586,-2.47 1.579,3.573 3.18,-1.407 z"
           id="path80"
           style="fill:#ffffff;stroke:none" />
        <path
           d="m 327.94,588.709 -0.411,-3.217 -4.232,0.54 -3.265,9.958 -5.691,-8.813 -4.58,0.585 0.411,3.217 1.942,-0.248 6.376,8.868 0.888,6.951 -2.087,0.267 0.408,3.188 7.768,-0.992 -0.408,-3.188 -2.029,0.259 -0.91,-7.126 3.878,-10.001 1.942,-0.248 z"
           id="path82"
           style="fill:#ffffff;stroke:none" />
        <path
           d="m 307.74,594.309 -0.053,-6.482 -17.853,0.146 0.053,6.482 3.418,-0.028 -0.026,-3.238 3.652,-0.03 0.136,16.612 -2.133,0.017 0.026,3.214 8.007,-0.065 -0.027,-3.214 -2.162,0.017 -0.136,-16.611 3.652,-0.03 0.027,3.238 3.419,-0.028 z"
           id="path84"
           style="fill:#ffffff;stroke:none" />
        <path
           d="m 285.124,610.656 0.28,-3.202 -1.979,-0.173 1.448,-16.549 1.979,0.173 0.283,-3.231 -7.598,-0.665 -0.282,3.231 1.95,0.171 -1.448,16.549 -1.95,-0.171 -0.28,3.202 7.597,0.665 z"
           id="path86"
           style="fill:#ffffff;stroke:none" />
        <path
           d="m 272.074,605.299 0.924,-4.941 c 0.477,-2.556 -0.755,-4.391 -3.139,-4.837 l -4.682,-0.875 c -0.976,-0.183 -1.26,-0.89 -1.03,-2.12 l 0.493,-2.638 c 0.235,-1.259 0.745,-1.758 1.721,-1.576 l 4.682,0.875 -0.542,2.897 3.562,0.666 1.138,-6.085 -9.307,-1.74 c -2.384,-0.446 -4.23,0.844 -4.707,3.396 l -0.863,4.615 c -0.478,2.556 0.778,4.426 3.162,4.872 l 4.654,0.87 c 0.976,0.182 1.265,0.861 1.029,2.124 l -0.542,2.901 c -0.231,1.235 -0.751,1.792 -1.728,1.61 l -5.112,-0.956 0.654,-3.504 -3.705,-0.693 -1.245,6.664 9.909,1.852 c 2.384,0.446 4.202,-0.849 4.674,-3.377 z"
           id="path88"
           style="fill:#ffffff;stroke:none" />
        <path
           d="m 253.59,606.137 0.912,-3.082 -1.906,-0.564 1.26,-4.259 c 0.713,-2.409 0.296,-3.782 -1.828,-5.05 2.1,0.316 3.335,-0.355 3.872,-2.171 l 1.051,-3.554 c 0.736,-2.49 -0.293,-4.47 -2.619,-5.158 l -11.012,-3.257 -0.92,3.111 1.878,0.555 -4.711,15.93 -1.878,-0.555 -0.911,3.082 5.408,1.6 2.875,-9.724 4.624,1.368 c 0.98,0.29 1.134,1.005 0.778,2.211 l -2.337,7.901 5.464,1.616 z m -1.245,-16.086 c -0.355,1.2 -0.922,1.672 -1.874,1.39 l -4.54,-1.342 1.877,-6.347 4.54,1.343 c 0.952,0.281 1.179,0.958 0.816,2.186 l -0.819,2.77 z"
           id="path90"
           style="fill:#ffffff;stroke:none" />
        <path
           d="m 231.318,599.315 2.895,-6.739 -3.006,-1.292 -1.627,3.786 -6.524,-2.804 2.827,-6.577 6.765,2.907 1.223,-2.846 -6.766,-2.907 2.51,-5.84 6.309,2.712 -1.542,3.588 2.953,1.269 2.823,-6.569 -14.444,-6.206 -1.281,2.98 1.799,0.773 -6.559,15.263 -1.798,-0.773 -1.269,2.953 14.712,6.322 z"
           id="path92"
           style="fill:#ffffff;stroke:none" />
        <path
           d="m 221.529,573.534 1.609,-2.816 -4.287,-2.451 -13.131,13.79 5.19,-18.328 -4.263,-2.435 -1.609,2.816 1.7,0.971 -5.245,19.839 3.882,2.218 14.454,-14.576 1.7,0.972 z"
           id="path94"
           style="fill:#ffffff;stroke:none" />
        <path
           d="m 190.947,578.336 1.872,-2.613 -1.615,-1.157 9.676,-13.503 1.616,1.157 1.889,-2.636 -6.199,-4.443 -1.89,2.637 1.592,1.14 -9.677,13.503 -1.591,-1.14 -1.872,2.613 6.199,4.442 z"
           id="path96"
           style="fill:#ffffff;stroke:none" />
        <path
           d="m 193.536,555.839 2.127,-2.449 -4.06,-3.525 -8.923,10.273 c -0.651,0.75 -1.352,1.69 -2.075,2.835 l 4.623,-18.646 -4.39,-3.813 -2.127,2.449 1.478,1.283 -10.894,12.542 -1.478,-1.284 -2.108,2.427 4.059,3.526 8.905,-10.251 c 0.651,-0.75 1.371,-1.712 2.117,-2.883 l -4.381,18.902 2.647,2.299 13.002,-14.969 1.478,1.284 z"
           id="path98"
           style="fill:#ffffff;stroke:none" />
        <path
           d="m 176.38,540.746 2.434,-2.144 -3.573,-4.057 -13.474,11.869 c -0.943,0.831 -1.696,0.949 -2.353,0.203 l -3.051,-3.465 c -0.657,-0.745 -0.426,-1.455 0.517,-2.286 l 13.475,-11.868 -3.747,-4.254 -2.434,2.144 1.313,1.49 -11.194,9.861 c -2.259,1.989 -2.448,4.648 -0.594,6.753 l 3.381,3.837 c 1.873,2.127 4.534,2.275 6.793,0.286 l 11.194,-9.86 1.313,1.491 z"
           id="path100"
           style="fill:#ffffff;stroke:none" />
        <path
           d="m 155.677,515.189 2.805,-1.629 -2.701,-4.649 -11.766,6.835 c -0.859,0.499 -1.826,1.162 -2.881,2.012 l 10.405,-16.149 -2.921,-5.028 -2.805,1.629 0.984,1.693 -14.365,8.345 -0.983,-1.693 -2.779,1.615 2.7,4.648 11.741,-6.82 c 0.859,-0.499 1.851,-1.177 2.936,-2.043 l -10.258,16.469 1.761,3.032 17.144,-9.96 0.983,1.693 z"
           id="path102"
           style="fill:#ffffff;stroke:none" />
        <path
           d="m 133.109,493.475 -1.891,-4.435 10.227,-1.694 -8.336,6.129 z m -6.557,10.992 2.956,-1.26 -0.71,-1.667 16.212,-12.601 -2.087,-4.892 -20.327,2.952 -0.688,-1.613 -2.956,1.261 1.765,4.139 7.369,-1.268 2.488,5.832 -5.994,4.494 1.972,4.623 z"
           id="path104"
           style="fill:#ffffff;stroke:none" />
        <path
           d="m 137.022,477.934 3.114,-0.909 -1.506,-5.161 -13.063,3.812 c -0.954,0.278 -2.051,0.69 -3.28,1.261 l 13.977,-13.18 -1.629,-5.582 -3.114,0.909 0.549,1.879 -15.948,4.654 -0.548,-1.88 -3.086,0.901 1.507,5.161 13.034,-3.803 c 0.954,-0.279 2.079,-0.699 3.34,-1.28 l -13.91,13.526 0.982,3.367 19.033,-5.555 0.548,1.88 z"
           id="path106"
           style="fill:#ffffff;stroke:none" />
        <path
           d="m 111.147,458.567 7.096,-1.123 -0.562,-3.55 -3.921,0.62 -1.174,-7.417 18.369,7.921 2.915,-0.462 -2.357,-14.892 -7.038,1.114 0.567,3.578 3.834,-0.606 1.114,7.042 -18.319,-7.988 -2.944,0.466 2.42,15.297 z"
           id="path108"
           style="fill:#ffffff;stroke:none" />
        <path
           d="m 112.961,433.688 c -1.254,0.061 -1.915,-0.287 -1.964,-1.279 l -0.215,-4.378 c -0.049,-0.992 0.573,-1.432 1.828,-1.494 l 12.832,-0.63 c 1.28,-0.063 1.884,0.317 1.932,1.31 l 0.215,4.377 c 0.049,0.993 -0.516,1.401 -1.796,1.464 l -12.832,0.63 z m -0.752,3.752 14.666,-0.72 c 2.598,-0.127 4.126,-1.782 4.007,-4.205 l -0.321,-6.537 c -0.119,-2.423 -1.802,-3.92 -4.399,-3.792 l -14.666,0.72 c -2.568,0.126 -4.096,1.78 -3.977,4.203 l 0.321,6.537 c 0.118,2.423 1.801,3.92 4.369,3.794 z"
           id="path110"
           style="fill:#ffffff;stroke:none" />
        <path
           d="m 122.561,414.295 c -1.248,-0.096 -1.828,-0.551 -1.752,-1.542 l 0.364,-4.72 6.599,0.509 -0.364,4.72 c -0.076,0.99 -0.69,1.353 -1.967,1.255 l -2.88,-0.222 z m -0.457,3.657 3.957,0.305 c 2.588,0.2 4.31,-1.221 4.496,-3.639 l 0.883,-11.45 -3.235,-0.249 -0.15,1.952 -16.563,-1.276 0.15,-1.952 -3.205,-0.247 -0.599,7.778 3.205,0.247 0.166,-2.155 6.905,0.532 -0.404,5.244 c -0.214,2.767 1.427,4.682 4.394,4.91 z"
           id="path112"
           style="fill:#ffffff;stroke:none" />
        <path
           d="m 357.013,596.196 c 0.395,1.193 0.236,1.923 -0.708,2.235 l -4.161,1.376 c -0.943,0.312 -1.534,-0.17 -1.928,-1.362 l -4.035,-12.198 c -0.402,-1.216 -0.197,-1.899 0.746,-2.212 l 4.161,-1.376 c 0.943,-0.312 1.488,0.124 1.89,1.34 l 4.035,12.197 z m 3.817,-0.278 -4.611,-13.94 c -0.817,-2.469 -2.82,-3.5 -5.123,-2.738 l -6.214,2.056 c -2.303,0.761 -3.296,2.783 -2.479,5.252 l 4.611,13.941 c 0.808,2.441 2.811,3.471 5.113,2.709 l 6.214,-2.055 c 2.303,-0.762 3.296,-2.783 2.489,-5.225 z"
           id="path114"
           style="fill:#ffffff;stroke:none" />
        <g
           id="g116"
           style="fill:#ffffff">
          <path
             d="m 422.307,440.532 c 1.031,-6.571 1.578,-13.164 1.578,-19.64 0,-3.212 -0.142,-6.464 -0.415,-9.877 l 21.755,-7.064 1.673,-0.544 -0.224,-1.738 c -1.977,-15.494 -6.363,-30.536 -13.035,-44.704 l -0.797,-1.689 -1.773,0.576 -21.378,6.95 c -4.843,-9.319 -10.795,-17.964 -17.731,-25.754 l 13.354,-18.386 1.05,-1.446 -1.247,-1.277 c -10.937,-11.19 -23.479,-20.567 -37.275,-27.868 l -1.621,-0.855 -1.082,1.485 -13.265,18.253 c -9.64,-4.59 -19.861,-7.93 -30.429,-9.942 l 0,-22.6 0,-1.828 -1.808,-0.267 c -7.236,-1.06 -14.61,-1.601 -21.917,-1.601 -8.195,0 -16.479,0.681 -24.619,2.019 l -1.773,0.292 0,1.8 0,22.7 c -10.263,2.188 -20.241,5.679 -29.726,10.396 l -13.221,-18.195 -1.097,-1.507 -1.633,0.895 c -13.699,7.51 -26.104,17.07 -36.877,28.421 l -1.209,1.278 1.031,1.423 13.44,18.492 c -6.539,7.602 -12.136,15.933 -16.674,24.809 l -21.34,-6.934 -1.786,-0.578 -0.788,1.703 c -6.586,14.188 -10.888,29.255 -12.781,44.782 l -0.211,1.731 1.657,0.541 21.796,7.083 c -0.233,3.218 -0.356,6.198 -0.356,9.025 0,6.207 0.501,12.528 1.449,18.816 l -21.379,6.944 -1.777,0.573 0.348,1.836 c 2.916,15.371 8.204,30.117 15.711,43.832 l 0.843,1.539 1.667,-0.543 21.757,-7.071 c 4.557,7.417 9.906,14.387 15.939,20.766 l -13.262,18.253 -1.079,1.484 1.316,1.278 c 11.232,10.911 24.014,19.962 37.985,26.892 l 1.604,0.794 1.05,-1.445 13.369,-18.403 c 7.815,3.426 15.951,6.055 24.234,7.822 l 0,22.697 0,1.796 1.773,0.296 c 8.12,1.338 16.406,2.019 24.619,2.019 7.301,0 14.672,-0.538 21.913,-1.598 l 1.812,-0.266 0,-1.828 0,-22.6 c 8.549,-1.624 16.898,-4.127 24.87,-7.456 l 13.43,18.483 1.037,1.423 1.589,-0.758 c 14.081,-6.726 26.999,-15.586 38.389,-26.335 l 1.355,-1.277 -1.092,-1.504 -13.206,-18.179 c 6.45,-6.584 12.165,-13.841 17.018,-21.624 l 21.78,7.076 1.66,0.539 0.846,-1.524 c 7.588,-13.683 12.963,-28.402 15.964,-43.752 l 0.36,-1.841 -1.782,-0.577 -21.356,-6.937 z m 3.922,49.519 -21.653,-7.038 -1.599,-0.519 -0.865,1.436 c -5.174,8.545 -11.417,16.46 -18.548,23.537 l -1.291,1.278 1.07,1.468 13.138,18.091 c -10.305,9.479 -21.848,17.395 -34.37,23.557 l -13.355,-18.383 -0.999,-1.375 -1.556,0.678 c -8.674,3.763 -17.841,6.509 -27.239,8.158 l -1.75,0.309 0,1.777 0,22.486 c -6.46,0.863 -13.002,1.323 -19.492,1.323 -7.39,0 -14.833,-0.594 -22.159,-1.712 l 0,-22.575 0,-1.736 -1.705,-0.338 c -9.115,-1.812 -18.062,-4.7 -26.594,-8.587 l -1.575,-0.716 -1.014,1.4 -13.3,18.305 c -12.42,-6.351 -23.84,-14.431 -34.002,-24.062 l 13.197,-18.162 1.05,-1.444 -1.245,-1.279 c -6.707,-6.893 -12.577,-14.539 -17.452,-22.717 l -0.866,-1.453 -1.611,0.522 -21.634,7.031 c -6.564,-12.34 -11.29,-25.514 -14.075,-39.223 l 21.268,-6.908 1.73,-0.557 -0.294,-1.796 c -1.096,-6.655 -1.653,-13.362 -1.653,-19.935 0,-3.2 0.155,-6.584 0.473,-10.347 l 0.136,-1.673 -1.594,-0.519 -21.687,-7.047 c 1.86,-13.861 5.696,-27.323 11.416,-40.082 l 21.233,6.898 1.744,0.567 0.811,-1.643 c 4.765,-9.664 10.82,-18.684 17.997,-26.808 l 1.122,-1.274 -0.996,-1.371 -13.362,-18.392 c 9.748,-10.033 20.831,-18.582 32.993,-25.447 l 13.155,18.101 1.066,1.472 1.618,-0.833 c 10.136,-5.226 20.882,-8.99 31.945,-11.184 l 1.705,-0.337 0,-1.738 0,-22.577 c 7.345,-1.115 14.785,-1.709 22.159,-1.709 6.497,0 13.041,0.461 19.492,1.323 l 0,22.487 0,1.777 1.747,0.307 c 11.391,2.003 22.38,5.595 32.663,10.671 l 1.6,0.792 1.051,-1.447 13.193,-18.158 c 12.253,6.684 23.456,15.063 33.356,24.946 l -13.284,18.286 -1.018,1.4 1.167,1.274 c 7.579,8.277 13.994,17.599 19.067,27.709 l 0.814,1.628 1.73,-0.561 21.272,-6.914 c 5.799,12.739 9.715,26.179 11.646,40.007 l -21.644,7.031 -1.61,0.522 0.155,1.686 c 0.356,3.909 0.535,7.566 0.535,11.177 0,6.83 -0.606,13.809 -1.792,20.739 l -0.312,1.805 1.744,0.568 21.246,6.899 c -2.862,13.685 -7.67,26.833 -14.309,39.148 z"
             id="path118"
             style="fill:#ffffff;stroke:none" />
          <g
             id="g120"
             style="fill:#ffffff">
            <path
               d="m 327.008,341.009 c -3.459,0.779 -6.214,-0.534 -7.286,-1.928 -1.074,-1.394 0.319,-5.683 1.499,-5.465 1.181,0.213 0.108,0.966 -0.213,2.891 -0.321,1.929 0.856,2.467 0.856,2.467 11.037,-8.36 2.463,-10.934 2.463,-10.934 3.002,-3.533 1.29,-8.785 1.29,-8.785 -6.859,2.25 -6.969,7.715 -6.969,7.715 -1.607,-2.571 -5.997,-0.963 -7.07,1.502 -1.073,2.463 -0.855,9.322 -0.855,9.322 4.392,0.966 3.425,-4.82 5.033,-5.037 1.609,-0.215 2.574,5.358 -4.926,6.752 -7.505,1.39 -9.434,-2.895 -10.289,-5.252 -0.856,-2.356 1.929,-4.396 2.57,-1.18 0.642,3.216 3.213,4.396 3.213,4.396 -0.96,-2.357 2.898,-6.004 2.573,-10.075 -0.317,-4.071 -7.284,-1.925 -7.284,-1.925 0.882,-2.014 0.548,-4.091 -0.217,-5.903 -0.453,-1.076 -1.043,-2.055 -1.62,-2.876 l 0,-3.919 3.147,0 0,-4.123 -3.147,0 0,-2.421 -4.127,0 0,2.421 -3.147,0 0,4.123 3.147,0 0,4.071 c -0.541,0.792 -1.092,1.709 -1.521,2.724 -0.761,1.812 -1.095,3.889 -0.213,5.903 0,0 -6.963,-2.146 -7.288,1.925 -0.317,4.071 3.537,7.718 2.575,10.075 0,0 2.573,-1.18 3.215,-4.396 0.642,-3.216 3.427,-1.176 2.57,1.18 -0.859,2.357 -2.784,6.642 -10.285,5.252 -7.501,-1.394 -6.534,-6.967 -4.926,-6.752 1.604,0.217 0.641,6.003 5.036,5.037 0,0 0.208,-6.859 -0.862,-9.322 -1.069,-2.465 -5.465,-4.073 -7.073,-1.502 0,0 -0.104,-5.465 -6.962,-7.715 0,0 -1.716,5.252 1.283,8.785 0,0 -8.571,2.574 2.467,10.934 0,0 1.179,-0.538 0.856,-2.467 -0.321,-1.925 -1.391,-2.678 -0.211,-2.891 1.177,-0.218 2.567,4.071 1.498,5.465 -1.07,1.394 -3.826,2.707 -7.288,1.928 -7.633,-1.714 -1.958,-13.825 -12,-15.002 0,0 5.339,12.934 11.754,20.685 l 58.983,0 c 6.413,-7.751 11.754,-20.685 11.754,-20.685 -10.042,1.177 -4.369,13.288 -12.003,15.002 z"
               id="path122"
               style="fill:#ffffff;stroke:none" />
            <g
               id="g124"
               style="fill:#ffffff">
              <g
                 id="g126"
                 style="fill:#ffffff">
                <path
                   d="m 319.416,380.8 c -1.183,-0.14 -3.119,-0.698 -3.661,-1.549 0.426,-0.918 1.034,-2.704 1.034,-4.779 0,-1.144 -0.187,-2.354 -0.743,-3.508 -0.438,-1.24 -1.295,-2.138 -2.486,-2.627 -0.875,-0.492 -1.832,-0.744 -2.841,-0.744 -3.267,0 -5.922,2.67 -5.922,5.925 0,2.187 1.235,4.146 3.144,5.179 -0.007,0.034 -0.007,0.034 -0.017,0.057 -0.487,0.041 -2.143,0.176 -2.143,0.176 l -0.103,0.332 c -0.013,0.052 -0.084,0.278 -0.084,0.586 0,0.295 0.062,0.642 0.268,0.991 0.121,0.183 0.342,0.375 0.637,0.534 -0.106,0.139 -0.113,0.188 -0.176,0.291 -0.417,0.002 -2.363,0.106 -2.363,0.106 l -0.031,0.45 c 0,0.044 0,0.094 0,0.164 0,0.476 0.14,1.123 0.607,1.561 -0.071,0.101 -0.106,0.135 -0.169,0.201 -0.365,0 -1.7,0 -1.713,0 -0.005,-0.014 -0.815,-0.164 -1.191,-0.219 -0.226,-0.27 -1.661,-2.01 -1.82,-2.199 -0.399,-1.504 -0.551,-2.672 -0.551,-3.501 0,-1.774 0.615,-2.242 0.615,-2.257 1.518,-0.587 1.872,-1.15 1.928,-1.498 0.225,-0.452 0.375,-0.924 0.375,-1.363 0,-0.364 -0.094,-0.736 -0.261,-1.094 -0.136,-0.316 -0.333,-0.594 -0.578,-0.847 l 0,-0.017 c -0.894,-0.932 -2.208,-1.491 -3.113,-1.494 -0.372,0 -0.856,0.067 -0.969,0.476 -0.079,0.226 -0.29,0.38 -0.544,0.349 -0.236,-0.013 -0.443,-0.2 -0.47,-0.451 -0.009,-0.049 -0.121,-0.843 -0.805,-1.665 -0.103,-0.076 -0.181,-0.182 -0.297,-0.236 -1.183,-0.627 -2.773,-0.488 -3.968,0.329 -1.268,0.874 -1.866,2.367 -1.671,4.111 l 0.126,1.041 0.76,-0.753 c 0.976,-0.984 3.309,0.775 4.256,1.614 -0.044,0.445 -0.296,5.022 -0.3,5.361 -1.493,1.513 -3.095,3.516 -3.553,4.094 -0.288,0.044 -1.269,0.224 -1.269,0.224 0,0 -1.265,-0.005 -1.631,-0.005 -0.079,-0.066 -0.092,-0.1 -0.171,-0.201 0.466,-0.438 0.608,-1.085 0.608,-1.561 0,-0.07 0,-0.12 -0.007,-0.164 l -0.035,-0.45 c 0,0 -1.929,-0.104 -2.344,-0.106 -0.064,-0.103 -0.103,-0.152 -0.182,-0.291 0.298,-0.159 0.524,-0.351 0.637,-0.534 0.201,-0.349 0.263,-0.696 0.263,-0.991 0,-0.308 -0.066,-0.534 -0.081,-0.586 l -0.093,-0.332 c 0,0 -1.658,-0.135 -2.155,-0.176 -0.006,-0.023 -0.006,-0.023 -0.021,-0.057 1.919,-1.033 3.157,-2.992 3.157,-5.179 0,-3.255 -2.65,-5.925 -5.939,-5.925 -0.989,0 -1.964,0.252 -2.871,0.773 -1.157,0.46 -2,1.358 -2.49,2.66 -0.516,1.111 -0.709,2.315 -0.709,3.441 0,2.062 0.62,3.866 1.051,4.784 -0.544,0.851 -2.493,1.409 -3.669,1.549 l -0.575,0.074 0.14,0.579 c 0.541,2.218 2.364,3.026 5.256,2.349 0.46,-0.123 0.905,-0.379 1.321,-0.726 0.234,0.329 0.415,0.581 0.539,0.736 -0.037,0.356 -0.476,4.903 -0.476,4.903 -0.157,1.071 -2.656,1.725 -3.85,1.885 l -0.578,0.073 0.13,0.554 c 0.561,2.241 2.401,3.048 5.263,2.369 1.616,-0.391 2.803,-2.054 3.589,-4.814 0.069,0.093 0.111,0.13 0.155,0.184 -0.086,1.014 -0.529,6.646 -0.757,8.254 -0.145,1.07 -2.664,1.74 -3.85,1.895 l -0.581,0.066 0.145,0.568 c 0.558,2.217 2.359,3.042 5.251,2.345 3.242,-0.765 4.133,-6.404 4.359,-8.641 0,0.525 0,6.793 0,6.793 0,0 0.564,0.079 0.666,0.089 0,0.057 -0.011,0.098 -0.011,0.165 0,0.111 0.011,0.234 0.021,0.359 -0.866,1.875 -1.896,4.183 -2.371,5.218 -3.108,-0.489 -5.843,1.135 -5.966,1.218 l 1.171,1.934 c 0.014,-0.012 0.957,-0.559 2.241,-0.841 -0.743,0.725 -1.414,1.572 -1.66,2.462 l 2.177,0.599 c 0.273,-0.953 2.071,-2.402 3.279,-3.093 0.098,-0.081 0.202,-0.151 0.278,-0.253 0.6,-0.158 2.426,-0.222 4.144,-0.163 l 0.103,-2.273 c -1.314,-0.05 -2.318,-0.027 -3.086,0.005 l 1.875,-4.151 c 0.025,-0.025 0.079,-0.047 0.106,-0.061 0.241,0.145 0.77,0.455 0.77,0.455 0,0 1.257,-0.455 1.727,-0.635 0.148,0.305 0.375,1.009 0.375,2.669 0,0.768 -0.057,1.728 -0.18,2.94 -0.15,1.405 -0.686,2.449 -1.587,3.127 -1.841,1.299 -4.609,0.704 -4.636,0.694 l -1.004,-0.194 0.412,0.92 c 0.826,1.914 1.99,3.049 3.395,3.329 1.328,0.253 2.563,-0.263 3.42,-0.802 -0.022,0.278 -0.06,0.549 -0.06,0.807 0,2.719 1.797,4.778 1.892,4.881 l 0.377,0.431 0.374,-0.426 c 0.113,-0.103 1.946,-2.182 1.946,-4.916 0,-0.241 -0.03,-0.516 -0.079,-0.78 0.874,0.542 2.116,1.058 3.438,0.805 1.419,-0.28 2.551,-1.415 3.402,-3.329 l 0.391,-0.92 -0.984,0.194 c -0.02,0.01 -2.797,0.605 -4.626,-0.694 -0.914,-0.678 -1.471,-1.722 -1.606,-3.127 -0.12,-1.212 -0.179,-2.172 -0.179,-2.94 0,-1.66 0.233,-2.364 0.369,-2.669 0.48,0.18 1.737,0.635 1.737,0.635 0,0 0.297,-0.175 0.546,-0.325 l 1.98,4.077 c -0.77,-0.027 -1.752,-0.05 -3.013,0 l 0.088,2.273 c 1.804,-0.066 3.73,0.012 4.234,0.179 0.059,0.086 0.116,0.175 0.192,0.237 1.201,0.691 3.017,2.14 3.277,3.093 l 2.198,-0.599 c -0.251,-0.89 -0.926,-1.737 -1.673,-2.462 1.269,0.282 2.209,0.829 2.233,0.841 l 1.177,-1.934 c -0.131,-0.096 -2.877,-1.717 -5.999,-1.213 -0.453,-0.93 -1.435,-2.945 -2.301,-4.731 0.111,-0.258 0.141,-0.549 0.141,-0.851 0,-0.067 0,-0.108 0,-0.165 0.081,-0.01 0.645,-0.089 0.645,-0.089 0,0 0,-6.268 0,-6.793 0.25,2.237 1.134,7.876 4.374,8.641 2.866,0.697 4.677,-0.128 5.257,-2.345 l 0.136,-0.568 -0.59,-0.066 c -1.186,-0.155 -3.689,-0.825 -3.848,-1.895 -0.222,-1.608 -0.655,-7.24 -0.753,-8.254 0.039,-0.054 0.101,-0.091 0.149,-0.184 0.801,2.76 1.991,4.423 3.58,4.814 2.889,0.679 4.71,-0.128 5.276,-2.369 l 0.14,-0.554 -0.578,-0.073 c -1.194,-0.16 -3.694,-0.814 -3.858,-1.885 0,0 -0.381,-4 -0.47,-4.903 0.105,-0.155 0.307,-0.407 0.541,-0.736 0.418,0.347 0.851,0.603 1.317,0.726 2.89,0.677 4.698,-0.131 5.257,-2.349 l 0.15,-0.579 -0.593,-0.074 z m -15.514,27.189 0,0 c 0,0 0.002,0.003 0.004,0.008 l -0.004,-0.008 z m -1.597,-37.106 0.642,0.371 1.147,-1.965 -1.359,-0.797 0.8,-1.354 -1.949,-1.136 -0.794,1.345 -1.358,-0.799 -1.157,1.955 0.268,0.163 c 1.339,0.185 2.845,1.002 3.76,2.217 z"
                   id="path128"
                   style="fill:#ffffff;stroke:none" />
                <path
                   d="m 260.585,409.126 c 0.91,2.996 1.959,6.556 2.049,6.85 0.229,0.248 2.931,3.372 4.414,5.099 l 1.22,-0.262 0.426,-5.339 c -0.701,-0.54 -5.23,-4.089 -8.109,-6.348 z m -3.226,5.348 c 0,-0.218 -0.172,-0.385 -0.391,-0.385 -0.196,0 -0.364,0.167 -0.364,0.385 0,0.192 0.168,0.358 0.364,0.358 0.219,0 0.391,-0.166 0.391,-0.358 z m -13.041,-12.277 -9.064,-7.312 -4.097,-0.622 1.732,3.927 8.857,7.403 2.572,-3.396 z m 5.307,13.67 c 0,0 3.951,-2.234 4.448,-2.517 0.218,-0.376 0.826,-1.459 1.004,-1.788 0,-0.256 0.015,-0.657 0.037,-1.231 -0.862,-0.224 -1.887,-0.472 -2.689,-0.688 -0.645,1.05 -2.953,4.831 -2.953,4.831 l -6.008,1.265 -0.46,-2.234 c 0,0 1.329,-0.271 2.657,-0.544 l -0.04,-0.034 2.104,-2.431 -5.897,-4.856 -4.458,5.877 5.028,9.436 c 2.256,-1.605 7.145,-5.052 7.227,-5.086 z m 8.16,-8.156 1.696,-2.332 8.195,6.416 -3.383,-8.697 -6.296,-1.552 c 4.498,-2.018 7.661,-6.525 7.661,-11.778 0,-7.127 -5.781,-12.895 -12.902,-12.895 -7.11,0 -12.897,5.768 -12.897,12.895 0,5.253 3.152,9.76 7.664,11.778 l -2.34,-0.338 -0.767,1.026 6.219,4.891 1.977,-2.295 1.722,1.457 -1.059,1.23 4.174,1.063 -0.119,3.286 c 1.289,0.178 2.3,1.27 2.3,2.608 0,1.44 -1.19,2.643 -2.662,2.643 -1.01,0 -1.891,-0.606 -2.341,-1.471 -1.325,0.742 -3.8,2.137 -3.8,2.137 -0.014,0 -7.093,4.99 -8.128,5.723 l -0.285,3.897 -1.612,20.283 24.269,0 0.548,-18.24 0.17,-6.375 -5.186,-5.976 -2.818,-9.384 z m -2.618,-16.353 c 0.734,-1.246 1.425,-2.847 1.432,-3.352 0,-1.695 -1.522,-3.055 -3.388,-3.055 -1.882,0 -3.4,1.36 -3.4,3.055 l -4.12,0 c 0,-3.953 3.36,-7.167 7.52,-7.167 4.148,0 7.517,3.214 7.517,7.167 0,1.935 -1.547,4.685 -2.023,5.479 l -3.538,-2.127 z"
                   id="path130"
                   style="fill:#ffffff;stroke:none" />
                <path
                   d="m 333.425,416.694 c 0.02,1.146 0.045,2.583 0.056,3.712 1.127,-0.007 2.565,-0.022 3.714,-0.042 -0.016,-1.126 -0.028,-2.566 -0.032,-3.698 -1.16,0.01 -2.582,0.01 -3.738,0.028 z m 19.045,-11.512 2.222,2.146 4.775,-4.828 -2.218,-2.155 -2.392,-0.142 1.292,-1.359 -1.737,-1.712 -5.898,6.406 -0.656,-0.63 c -0.887,-0.344 -4.518,-1.79 -4.882,-1.941 -0.44,0.017 -6.665,0.239 -6.899,0.244 -0.207,0.069 -4.089,1.13 -5.194,1.434 -0.155,1.252 -0.295,2.571 -0.295,2.598 l -2.403,16.143 0.022,3.916 0.239,22.692 24.415,0 -1.983,-23.191 -0.423,-5.843 -6.485,-0.606 -4.552,-1.688 0.07,5.967 -8.263,0.061 -0.073,-8.241 6.027,-0.07 -1.336,-2.686 3.683,-2.338 0.569,-0.347 c 0,0 0.906,0.465 1.995,1.044 l 6.424,-6.518 1.6,1.599 -5.89,5.992 c 0.681,0.351 1.271,0.646 1.522,0.774 0.569,-0.309 1.523,-0.829 1.523,-0.829 l 1.085,2.001 -2.576,1.399 c 0,0 -4.642,-2.379 -5.58,-2.858 -0.438,0.287 -0.816,0.533 -1.421,0.905 0.376,0.756 0.703,1.398 0.893,1.816 0.71,0.251 4.573,1.687 4.807,1.756 0.174,0.025 3.57,0.355 6.261,0.608 l 3.442,-0.281 -2.521,-9.829 -1.529,-1.475 2.186,-2.256 0.154,2.322 z m -21.464,-5.476 c 0.053,0.085 0.065,0.213 0.067,0.321 0.079,0.057 0.148,0.096 0.212,0.153 l 4.44,-1.215 7.409,-0.269 0.231,-0.021 3.267,1.309 c 3.107,-2.341 5.12,-6.033 5.12,-10.216 0,-7.127 -5.782,-12.895 -12.892,-12.895 -7.142,0 -12.902,5.768 -12.902,12.895 0,0.344 0.039,0.664 0.052,0.996 l 4.996,8.942 z m 8.516,-18.867 c 4.145,0 7.526,3.214 7.526,7.167 0,1.935 -1.548,4.685 -2.028,5.479 l -3.549,-2.127 c 0.752,-1.246 1.443,-2.847 1.446,-3.352 0,-1.695 -1.523,-3.055 -3.395,-3.055 -1.865,0 -3.393,1.36 -3.393,3.055 l -4.134,0 c 0,-3.953 3.379,-7.167 7.527,-7.167 z m -10.756,20.32 -0.193,-1.185 c -0.767,-1.344 -2.839,-5.044 -4.271,-7.633 l 0,11.714 -2.819,7.209 0.293,6.618 4.574,0.473 c 0.703,-4.759 1.972,-13.434 1.972,-13.404 0,0 0.296,-2.529 0.444,-3.792 z"
                   id="path132"
                   style="fill:#ffffff;stroke:none" />
              </g>
              <path
                 d="m 294.955,484.453 0,1.582 -1.577,0 0,2.256 1.577,0 0,1.582 2.267,0 0,-1.582 1.572,0 0,-2.256 -1.572,0 0,-1.582 -2.267,0 z m 12.278,3.998 -1.543,0.045 1.208,-1.455 -1.757,-1.444 -9.096,10.983 -9.095,-10.983 -1.75,1.444 1.208,1.455 -1.744,-0.05 -0.145,0.123 -2.241,1.824 4.335,5.235 2.391,-1.939 0.273,-1.732 5.302,6.392 -4.632,5.592 -8.176,0.795 0.933,9.731 9.755,-0.918 -0.79,-8.149 4.379,-5.279 4.38,5.282 -0.791,8.146 9.751,0.918 0.937,-9.731 -8.18,-0.79 -4.631,-5.594 5.307,-6.397 0.273,1.734 2.374,1.939 4.35,-5.235 -2.381,-1.947 -0.204,0.005 z m -17.764,17.823 c 0.138,1.328 0.389,3.884 0.5,5.221 -1.331,0.127 -3.876,0.379 -5.216,0.508 -0.133,-1.353 -0.362,-3.886 -0.509,-5.225 1.348,-0.128 3.889,-0.389 5.225,-0.504 z m 13.158,0 c 1.326,0.115 3.872,0.376 5.231,0.497 -0.138,1.346 -0.391,3.879 -0.525,5.232 -1.325,-0.129 -3.889,-0.381 -5.223,-0.508 0.13,-1.337 0.384,-3.893 0.517,-5.221 z"
                 id="path134"
                 style="fill:#ffffff;stroke:none" />
              <path
                 d="m 373.002,350.811 -152.726,0 0,100.43 c 0,38.45 35.44,70.924 77.398,70.924 19.518,0 39.114,-7.534 53.81,-20.706 15.205,-13.628 23.594,-31.47 23.594,-50.218 l 0,-100.43 -2.076,0 z m -26.065,113.723 c 0,1.631 0,5.571 0,5.571 l -11.591,0 c 0,0 0,-3.94 0,-5.571 -2.02,0 -4.418,0 -6.428,0 0,1.631 0,5.571 0,5.571 l -11.617,0 c 0,0 0,-3.94 0,-5.571 -2.025,0 -4.39,0 -6.439,0 0,1.631 0,5.571 0,5.571 l -11.596,0 c 0,0 0,-3.94 0,-5.571 -2.024,0 -4.419,0 -6.439,0 0,1.631 0,5.571 0,5.571 l -11.612,0 c 0,0 0,-3.94 0,-5.571 -2.028,0 -4.401,0 -6.432,0 0,1.631 0,5.571 0,5.571 l -11.6,0 c 0,0 0,-3.94 0,-5.571 -2.022,0 -4.414,0 -6.428,0 0,1.631 0,5.571 0,5.571 l -11.621,0 c 0,0 0,-3.94 0,-5.571 -2.069,0 -6.401,0 -8.493,0 l 0,6.84 3.256,0 0,20.379 c -9.664,-11.328 -15.495,-25.428 -15.495,-40.512 0,0 0,-92.328 0,-96.296 3.961,0 142.586,0 146.546,0 0,3.968 0,96.296 0,96.296 0,16.093 -6.631,31.488 -18.748,43.823 l 0,-23.69 3.253,0 0,-6.84 c -2.089,0 -6.407,0 -8.516,0 z M 265.7,511.089 c -0.003,-0.134 -0.01,-0.264 -0.01,-0.399 0,-5.428 1.316,-10.55 3.593,-15.038 5.109,-10.069 15.158,-16.929 26.777,-16.929 12.14,0 22.606,7.553 27.458,18.447 1.817,4.107 2.88,8.686 2.88,13.52 0,0.549 -0.012,1.092 -0.039,1.631 -9.125,3.722 -18.92,5.721 -28.685,5.721 -11.381,0 -22.253,-2.517 -31.974,-6.953 z m 19.639,-45.118 c 1.358,0 2.014,0 3.362,0 0,-1.643 0,-5.562 0,-5.562 l 14.684,0 c 0,0 0,3.919 0,5.562 1.345,0 2.022,0 3.366,0 0,-1.643 0,-5.562 0,-5.562 l 4.851,0 0,-21.781 4.416,-5.672 0,-9.294 -6.441,0 0,5.572 -4.709,0 0,-5.572 -6.443,0 0,5.572 -4.684,0 0,-5.572 -6.434,0 0,5.572 -4.705,0 0,-5.572 -6.44,0 0,9.294 4.408,5.672 0,21.781 4.769,0 c 0,0 0,3.919 0,5.562 z m 54.128,0 c 1.332,0 2.01,0 3.356,0 0,-1.643 0,-5.562 0,-5.562 l 2.064,0 7.313,0 0,-9.168 -24.429,0 0,9.168 11.696,0 c 0,0 0,3.919 0,5.562 z m -90.204,0 c 1.35,0 2.01,0 3.356,0 0,-1.643 0,-5.562 0,-5.562 l 11.698,0 0,-9.168 -24.42,0 0,9.168 9.366,0 c 0,0 0,3.919 0,5.562 z"
                 id="path136"
                 style="fill:#ffffff;stroke:none" />
            </g>
          </g>
        </g>
        <path
           d="m 92.0883,420.892 c 0,-113.359 92.2277,-205.588 205.5867,-205.588 113.363,0 205.587,92.229 205.587,205.588 0,113.361 -92.224,205.585 -205.587,205.585 -113.359,0 -205.5867,-92.224 -205.5867,-205.585 z m -4.1029,0 c 0,115.623 94.0686,209.69 209.6896,209.69 115.625,0 209.69,-94.067 209.69,-209.69 0,-115.623 -94.065,-209.689 -209.69,-209.689 -115.621,0 -209.6896,94.066 -209.6896,209.689 z"
           id="path138"
           style="fill:#ffffff;stroke:none" />
      </g>
    </g>
  </g>
  <g
     transform="translate(-87.9854,-211.20304)"
     id="g140" />
</svg>
