<?xml version="1.0" encoding="UTF-8" standalone="no"?>
<!-- Created with sK1/UniConvertor (http://sk1project.org/) -->

<svg
   xmlns:dc="http://purl.org/dc/elements/1.1/"
   xmlns:cc="http://creativecommons.org/ns#"
   xmlns:rdf="http://www.w3.org/1999/02/22-rdf-syntax-ns#"
   xmlns:svg="http://www.w3.org/2000/svg"
   xmlns="http://www.w3.org/2000/svg"
   xmlns:sodipodi="http://sodipodi.sourceforge.net/DTD/sodipodi-0.dtd"
   xmlns:inkscape="http://www.inkscape.org/namespaces/inkscape"
   width="354.37497"
   height="442.96872"
   viewBox="0 0 283.49999 354.37496"
   id="svg2"
   version="1.1"
   inkscape:version="0.48.4 r9939"
   sodipodi:docname="uam.svg"
   style="fill-rule:evenodd">
  <metadata
     id="metadata24">
    <rdf:RDF>
      <cc:Work
         rdf:about="">
        <dc:format>image/svg+xml</dc:format>
        <dc:type
           rdf:resource="http://purl.org/dc/dcmitype/StillImage" />
      </cc:Work>
    </rdf:RDF>
  </metadata>
  <sodipodi:namedview
     pagecolor="#ffffff"
     bordercolor="#666666"
     borderopacity="1"
     objecttolerance="10"
     gridtolerance="10"
     guidetolerance="10"
     inkscape:pageopacity="0"
     inkscape:pageshadow="2"
     inkscape:window-width="1598"
     inkscape:window-height="845"
     id="namedview22"
     showgrid="false"
     inkscape:zoom="0.63429547"
     inkscape:cx="75.7071"
     inkscape:cy="413.50559"
     inkscape:window-x="0"
     inkscape:window-y="0"
     inkscape:window-maximized="1"
     inkscape:current-layer="g14"
     fit-margin-top="0"
     fit-margin-left="0"
     fit-margin-right="0"
     fit-margin-bottom="0" />
  <defs
     id="defs4">
    <marker
       id="ArrowEnd"
       viewBox="0 0 10 10"
       refX="0"
       refY="5"
       markerUnits="strokeWidth"
       markerWidth="4"
       markerHeight="3"
       orient="auto">
      <path
         d="M 0,0 10,5 0,10 z"
         id="path7"
         inkscape:connector-curvature="0" />
    </marker>
    <marker
       id="ArrowStart"
       viewBox="0 0 10 10"
       refX="10"
       refY="5"
       markerUnits="strokeWidth"
       markerWidth="4"
       markerHeight="3"
       orient="auto">
      <path
         d="M 10,0 0,5 10,10 z"
         id="path10"
         inkscape:connector-curvature="0" />
    </marker>
  </defs>
  <g
     id="g12"
     transform="translate(-70.874957,-416.64006)">
    <g
       id="g14">
      <path
         style="fill:none;stroke:none"
         d="m 0,345.765 425.25,0 0,496.125 -425.25,0 0,-496.125 0,0 z"
         id="path16"
         inkscape:connector-curvature="0" />
      <path
         style="fill:#ffffff;stroke:none"
         d="m 208.347,427.755 -1.815,-0.225 c -1.95,-0.264 -5.297,1.162 -5.459,1.23 l -1.062,0.469 0.984,0.65 c 1.878,1.235 3.616,1.646 5.112,1.191 1.903,-0.576 2.685,-2.358 2.721,-2.432 l 0.325,-0.771 -0.806,-0.112 z m -30.056,343.26 0.061,0 0.654,-0.821 -0.46,-1.504 c 0.456,-8.033 11.742,-26.365 11.742,-26.365 0,0 23.672,0.698 27.461,0.185 l 6.626,24.09 c -3.143,2.315 -3.748,3.99 -3.151,4.41 5.284,-2.613 15.696,-3.751 21.493,-2.657 0.559,0.098 11.666,2.955 12.629,2.549 -0.898,-1.001 -2.637,-2.319 -2.829,-3.662 -0.203,-1.294 -0.14,-2.427 -0.14,-2.427 -1.356,-19.817 8.03,-92.048 8.03,-92.932 1.079,-8.033 3.261,-0.835 3.261,-0.835 0,0 19.01,91.677 20.258,97.927 l 0.043,0.274 0.467,1.455 4.047,0.005 0.489,-1.734 c 3.965,-14.005 27.044,-94.543 27.044,-94.826 1.911,-6.012 3.825,-1.123 3.825,-1.123 3.037,3.453 5.239,92.76 5.102,92.936 -5.069,2.945 -4.151,5.05 -4.077,5.05 11.207,-5.67 32.544,-0.103 32.866,-0.347 l -9.044,-8.404 0,0 c -2.198,-8.385 -9.562,-123.907 -9.421,-127.135 -0.522,-2.369 5.196,-5.895 5.543,-5.895 -11.349,2.115 -21.545,1.07 -26.595,0.108 -2.936,-0.674 3.002,2.403 2.471,4.698 -1.338,13.488 -24.257,82.891 -24.066,82.656 -5.098,-4.795 -15.818,-79.199 -15.857,-80.229 -0.393,-3.321 5.366,-5.909 4.401,-7.228 -12.123,5.465 -29.381,0.005 -29.381,0.005 -1.926,0.884 3.85,3.155 3.686,8.156 -0.158,5.059 -9.241,107.855 -10.843,116.894 -0.506,2.94 -0.985,6.109 -2.051,8.922 l -1.004,-1.494 c -10.513,-19.886 -16.438,-67.016 -16.043,-68.92 0.316,-1.905 4.223,-3.033 4.223,-3.033 l -23.894,-0.19 c -0.355,5.923 -29.826,68.431 -36.665,74.438 l -0.027,-0.025 c 0,0 0.777,-120.073 0.759,-126.324 -0.083,-4.942 6.227,-8.429 6.227,-8.429 l -0.914,0.137 c -3.54,1.04 -7.97,1.563 -12.814,1.563 -4.795,0 -9.166,-0.616 -12.689,-1.7 -1.497,-0.297 -1.785,0.152 -1.785,0.264 l 1.689,2.198 c 8.307,7.613 -0.806,54.987 -1.382,56.022 -38.786,114.126 -54.2314,46.974 -54.2314,46.974 -4.1803,-18.582 5.5399,-94.265 5.8211,-94.426 2.6003,-5.157 10.6573,-10.011 10.4743,-10.612 l -0.225,-0.249 c -15.0966,6.988 -38.9133,-0.288 -39.091,-0.156 l -0.0585,0.015 0,0.151 c -0.9865,0.532 8.6945,4.898 9.0148,8.854 -0.0538,1.953 -5.448,87.862 -5.448,87.54 -1.2863,44.654 25.0034,45.201 25.0034,45.201 34.8143,-0.572 50.3113,-66.316 50.6203,-67.997 0.379,-1.719 2.252,-0.987 2.252,-0.987 l 0.354,60.921 -1.221,3.253 -2.796,4.81 c 9.059,-3.033 18.25,-2.393 27.401,-0.425 1.13,0.252 1.899,0.4 2.165,0.43 z m 158.997,-223.739 0,0 c -5.336,0.298 -19.094,-2.734 -31.322,-37.422 -0.649,-1.801 -1.615,-2.729 -2.637,-2.548 -1.313,0.229 -2.036,2.109 -2.036,5.298 l 0,0.073 c 0.004,10.836 1.368,47.281 18.616,61.473 5.89,4.854 13.131,6.519 21.448,5.088 -2.666,9.401 -7.862,15.343 -13.976,15.949 -8.347,0.806 -17.444,-8.023 -25.58,-24.876 -1.969,-4.229 -4.629,-12.491 -7.442,-21.238 -6.036,-18.61 -10.214,-30.902 -13.436,-32.172 -1.255,-0.488 -2.109,-0.146 -2.592,0.245 -1.396,1.113 -2.951,4.546 -0.544,21.453 2.029,11.597 6.34,18.346 10.091,21.198 -5.016,1.045 -13.606,0.83 -24.375,-33.475 -1.193,-3.688 -2.512,-5.494 -3.984,-5.382 -1.837,0.156 -2.634,3.169 -2.997,5.655 -0.762,5.069 1.838,15.08 3.954,20.032 -7.247,-6.187 -20.03,-22.903 -15.326,-37.359 2.965,5.25 4.766,7.125 4.83,7.204 l 0.371,0.38 0.45,-0.322 6.412,-4.82 9.06,4.859 0.594,0.332 0.274,-0.635 3.006,-6.998 9.077,3.541 0.577,0.244 0.22,-0.635 1.965,-5.992 7.88,4.019 0.742,0.376 0.151,-0.791 2.022,-9.01 9.649,4.181 0.87,0.385 0,-0.962 -0.004,-10.894 9.542,-0.005 0.625,0 0,-0.645 -0.006,-6.451 7.761,-0.85 0.576,-0.063 -0.029,-0.577 -0.342,-15.543 c -0.015,-0.303 -0.264,-2.491 -1.617,-3.292 -0.43,-0.254 -1.118,-0.483 -2.094,-0.097 -1.641,0.698 -3.448,2.08 -3.62,3.891 -0.151,1.27 0.641,2.443 2.09,3.541 l 0,6.285 c -0.199,0.308 -1.625,2.017 -7.54,0.107 l -0.824,-0.273 0,0.865 c 0,6.787 -1.276,7.554 -7.781,8.413 l -0.4,0.054 -0.131,0.376 c -0.963,2.95 -1.758,5.084 -3.326,5.714 -1.391,0.571 -3.579,0.014 -6.859,-1.739 l -0.769,-0.4 -0.151,0.84 c -0.125,0.742 -0.244,1.431 -0.347,2.109 -0.366,2.496 -0.667,4.474 -1.813,5.011 -1.034,0.522 -2.993,-0.063 -5.972,-1.758 l -0.668,-0.386 -0.254,0.752 c -0.172,0.552 -0.328,1.123 -0.504,1.67 -0.746,2.593 -1.48,5.03 -2.783,5.372 -1.106,0.288 -2.891,-0.771 -5.265,-3.121 l -0.533,-0.512 -0.439,0.591 c -2.823,3.994 -5.39,5.933 -7.589,5.796 -1.659,-0.102 -3.204,-1.411 -4.569,-3.926 l -0.393,-0.742 -0.603,0.591 c -2.481,2.485 -4.204,3.501 -5.611,3.325 -1.279,-0.171 -2.506,-1.328 -3.936,-3.76 l -0.049,-0.073 -0.044,-0.059 c -0.647,-0.615 -1.541,-1.182 -2.358,-1.65 -0.27,-0.157 -0.567,-0.347 -0.811,-0.503 0.424,-0.044 1.116,-0.089 2.262,-0.089 l 0.235,-0.004 c 7.202,-0.005 26.317,-0.01 39.77,-9.079 14.698,-9.864 29.817,-21.316 23.859,-32.372 0.033,-1.597 0.713,-2.349 2.338,-3.999 1.188,-1.202 1.748,-4.161 1.748,-6.373 0,-1.319 -0.169,-3.052 -1.015,-3.897 l -0.463,-0.459 -0.42,0.459 c -0.895,0.884 -1.338,1.875 -1.739,2.842 -0.683,1.563 -1.416,3.052 -4.072,4.312 -0.821,-1.65 -1.446,-3.042 -1.915,-4.165 -1.308,-2.94 -1.959,-4.444 -4.014,-4.444 l -0.65,0.009 0,0.645 c 0,0.938 0.341,2.051 0.699,3.243 0.502,1.792 1.084,3.823 0.472,5.366 -2.969,1.158 -6.352,5.407 -6.352,8.17 l 0,0.836 0.801,-0.22 c 0.981,-0.293 1.817,-0.65 2.5,-0.938 0.538,-0.22 1.26,-0.547 1.456,-0.479 0.033,0.01 0.189,0.201 0.189,1.27 0,0.713 -0.058,1.387 -0.098,2.032 -0.169,2.315 -0.292,4.312 2.003,6.612 l 0.777,0.772 0.264,-1.055 c 1.406,-5.309 3.823,-7.97 4.428,-7.96 0.039,0.034 0.153,0.205 0.153,0.927 0,3.863 -1.032,9.064 -9.148,15.022 -5.528,4.038 -19.788,13.722 -33.133,15.979 0.015,0 -2.636,0.449 -2.636,0.449 -9.655,1.694 -15.613,2.637 -19.774,-3.409 7.077,-0.405 44.846,-3.243 55.103,-17.858 l 0.26,-0.381 -0.273,-0.362 c -2.452,-3.199 -8.172,-13.297 -5.431,-21.619 1.586,-4.776 5.763,-8.136 12.414,-10.006 6.352,-1.479 11.525,1.25 14.723,3.804 5.957,4.752 10.114,12.741 10.118,19.471 0.133,6.456 1.211,27.889 10.099,32.919 2.721,1.543 5.997,1.323 9.611,-0.474 -0.659,3.301 -2.798,7.916 -6.948,9.215 -4.347,1.372 -9.773,-1.533 -15.647,-8.409 -0.67,-0.679 -1.627,-1.455 -2.594,-1.065 -0.957,0.391 -1.387,1.856 -1.387,4.835 0,0.273 0.553,26.932 12.566,35.541 3.633,2.603 7.925,3.15 12.759,1.802 -1.308,3.492 -5.229,6.945 -10.47,7.252 z m -45.254,12.072 0,0 c 0.014,0.029 -0.293,-0.474 -0.293,-0.474 -0.019,-0.024 -0.777,-1.113 -0.777,-1.113 0.035,0.034 -0.336,-0.537 -0.336,-0.537 0,-0.025 -0.625,-0.977 -0.625,-0.977 l -0.36,-0.562 c 0.01,0.01 -0.509,-0.825 -0.509,-0.825 0,0.049 -0.291,-0.518 -0.291,-0.518 -0.012,-0.044 -0.516,-0.835 -0.516,-0.835 l -0.303,-0.498 c 0.035,0.01 -0.424,-0.747 -0.424,-0.747 0.014,0.015 -0.244,-0.488 -0.244,-0.488 0.014,0.024 -0.349,-0.679 -0.349,-0.679 0.031,0.029 -0.198,-0.474 -0.198,-0.474 -0.047,-0.043 -0.383,-0.678 -0.383,-0.678 0.033,0.043 -0.154,-0.411 -0.154,-0.411 l -0.299,-0.635 c 0,0.03 -0.17,-0.39 -0.17,-0.39 -0.01,-0.034 -0.222,-0.518 -0.254,-0.567 l -0.105,-0.346 0,-0.035 -0.02,-0.048 -0.226,-0.484 -0.069,-0.244 0,-0.059 -0.011,-0.043 -0.19,-0.548 c 0,0 -0.054,-0.171 -0.068,-0.229 l -0.141,-0.518 0,-0.039 -0.008,-0.019 -0.111,-0.244 -0.082,-0.425 c 0,0.014 -0.053,-0.191 -0.053,-0.249 l -0.045,-0.371 0,-0.054 -0.015,-0.054 -0.045,-0.215 c 0,0.029 -0.09,-0.332 -0.09,-0.381 l 0,-0.156 c 0,0.02 -0.03,-0.356 -0.03,-0.356 0,0.034 -0.002,-0.162 -0.002,-0.162 l 0,-0.337 0,-0.146 c 0,0.044 0.032,-0.327 0.032,-0.327 0,0.014 0,-0.015 -0.002,-0.034 l 0.119,-0.284 c 0,-0.044 0.018,-0.117 0.018,-0.117 0.011,-0.034 0.025,-0.146 0.058,-0.244 l 0,-0.059 0.1,-0.264 0.144,-0.214 0.069,-0.142 c 0.043,-0.034 0.043,-0.093 0.092,-0.127 l 0,-0.024 0.068,-0.064 0.029,-0.054 0.067,-0.043 0.048,-0.039 0.147,-0.113 0.125,-0.088 0,-0.014 c 0.039,0 0.137,-0.059 0.137,-0.059 l 0.097,-0.039 c 0.026,-0.01 0.065,-0.02 0.065,-0.02 l -0.002,0.01 c 1.062,1.016 4.473,11.012 7.45,20.989 l -1.065,-1.46 z m -34.205,20.349 0,0 0.43,0.43 0.427,-0.43 0.377,-0.386 c 4.224,-4.185 9.451,-9.385 13.889,-8.404 2.346,0.523 4.348,2.867 5.934,6.827 -3.815,0.156 -11.103,1.187 -11.099,4.932 0,0.928 0.262,1.622 0.772,2.1 1,0.894 2.623,0.728 4.336,0.518 0.69,-0.068 1.395,-0.152 2.051,-0.152 2.858,0 11.504,-0.004 11.506,6.569 0.004,6.509 -2.969,7.91 -4.831,8.174 0.186,-1.807 -0.172,-4.136 -1.899,-6.109 -1.701,-1.982 -5.342,-4.209 -13.005,-3.565 l -0.934,0.069 0.426,0.83 c 0.26,0.532 0.625,1.182 1.035,1.958 0.186,0.357 0.424,0.786 0.659,1.182 l -0.11,0.029 0.137,0.059 c 2.522,4.727 6.467,12.731 4.028,16.554 -1.084,1.637 -3.37,2.354 -6.73,2.247 2.067,-7.149 -0.773,-11.999 -3.627,-14.816 -2.924,-2.911 -6.714,-6.187 -10.296,-5.889 -1.602,0.151 -2.956,1.01 -4.063,2.573 -0.975,1.601 -0.954,3.179 0,4.492 1.105,1.534 3.33,2.428 5.623,2.413 -1.305,1.445 -2.858,2.515 -4.637,2.72 -2.522,0.264 -5.086,-0.85 -7.479,-3.233 -1.565,-1.548 -2.085,-4.112 -1.405,-6.685 1.25,-4.571 5.888,-8.199 12.752,-9.933 l 0.471,-0.127 0,-0.498 c -0.004,-5.757 -2.304,-10.485 -7.658,-15.778 l -0.43,-0.459 -0.447,0.449 -0.283,0.278 c -0.967,0.972 -1.975,1.973 -3.151,1.734 -2.055,-0.41 -4.589,-4.234 -7.534,-11.374 l -0.029,-0.122 -0.079,-0.058 c -0.91,-1.666 4.118,-19.202 5.06,-20.462 l 0.127,-0.117 c -0.012,0.014 0.025,-0.147 0.025,-0.147 0.256,-0.986 0.979,-2.461 1.661,-2.519 0.218,-0.015 1.017,0.102 2.25,2.622 0.515,1.055 1.078,2.129 1.666,3.277 3.096,5.909 6.591,12.619 5.546,19.25 -1.381,6.876 7.649,18.132 8.532,18.977 l 0.006,0 z m 15.111,15.817 0,0 c 0.87,0.225 1.596,0.621 2.178,1.202 0.92,0.898 1.346,2.094 1.576,3.174 -0.878,-1.744 -2.109,-3.213 -3.754,-4.376 z m -41.982,-70.394 0,0 -0.775,-0.493 -0.182,0.894 c -0.615,2.798 -2.518,9.986 -4.374,12.706 -0.842,-1.416 -1.711,-3.052 -2.555,-4.688 -1.613,-3.155 -3.148,-6.133 -4.672,-7.628 l -0.77,-0.757 -0.273,1.026 c -0.913,3.228 -1.438,5.704 -1.848,7.691 -0.557,2.583 -0.91,4.151 -1.644,5.211 -3.95,-4.249 -6.92,-11.774 -6.966,-11.847 l -0.667,-1.753 -0.505,1.816 -2.996,10.651 c -1.32,-1.055 -4.293,-3.97 -4.463,-9.083 l -0.069,-2.369 -1.115,2.105 -3.924,7.496 c -1.575,-1.948 -6.002,-9.025 -3.533,-23.406 3.069,5.342 7.107,9.508 7.293,9.693 l 0.828,0.816 0.235,-1.138 1.774,-8.556 c 2.169,3.209 4.864,7.628 4.864,8.903 l 0,1.514 1.094,-1.07 c 2.878,-2.9 5.574,-7.154 6.345,-9.703 2.025,2.139 4.711,5.928 5.264,9.698 l 1.259,-0.112 -0.068,0.259 c 0.059,-0.098 0.367,-0.625 0.707,-1.187 2.44,-3.99 4.745,-7.872 5.724,-10.27 2.178,5.196 3.965,11.643 3.984,11.721 l 0.208,0.791 0.709,-0.42 c 0.236,-0.161 5.129,-3.16 8.108,-8.488 -0.154,9.669 -1.297,12.707 -4.651,16.277 -0.363,-4.732 -2.264,-6.246 -2.346,-6.3 z m -3.412,24.779 0,0 -1.821,-1.729 -0.438,-0.43 -0.447,0.435 c -0.097,0.102 -2.129,2.359 -4.448,10.733 -2.418,-3.037 -5.989,-10.689 -6.037,-10.777 l -0.346,-0.737 c 0.154,-0.259 0.312,-0.577 0.312,-0.577 l 4.884,-8.8 c 1.568,3.658 3.188,7.975 3.197,8.033 l 0.405,1.036 0.683,-0.874 c 2.022,-2.545 5.114,-5.861 6.794,-6.71 -0.195,5.621 -1.979,9.19 -2.738,10.397 z m -6.031,16.833 0,0 c -1.041,1.001 -2.529,0.356 -2.609,0.327 l -0.866,-0.386 c -0.009,0 -0.009,0.972 -0.009,0.972 0,0.024 -0.079,3.164 -2.159,6.974 -1.971,-0.772 -2.805,-2.433 -3.953,-4.908 -0.285,-0.625 -0.578,-1.27 -0.938,-1.968 l -0.734,-1.46 -0.425,1.562 c -1.263,4.532 1.398,9.547 6.388,11.93 0.766,0.376 1.127,0.87 1.1,1.519 -0.061,1.636 -2.461,3.931 -4.395,4.732 -0.723,0.288 -1.182,0.288 -1.35,0.171 -14.323,-33.905 -13.968,-41.035 -12.985,-45.191 3.292,1.709 5.9,5.772 5.938,5.821 l 0.772,1.284 0.366,-1.455 c 0.01,-0.054 0.953,-3.77 2.346,-7.237 1.869,2.193 5.206,7.354 5.263,7.423 l 0.319,0.478 -0.368,0.806 -3.887,8.766 c -1.055,-1.011 -3.287,-3.311 -5.514,-6.617 l -1.138,0.488 c 1.819,8.463 4.217,11.256 6.945,13.805 l 1.059,0.987 0,-1.431 c 0.032,-0.679 2.096,-5.294 3.705,-7.55 0.83,3.174 4.045,6.598 4.483,7.013 0.482,0.503 1.025,0.937 1.494,1.318 0.639,0.533 1.356,1.133 1.381,1.465 0,0.137 -0.141,0.293 -0.229,0.362 z m -1.043,30.194 0,0 c 0.45,1.289 0.38,2.383 -0.281,3.34 -1.793,2.588 -7.154,3.462 -8.455,3.462 -1.321,0 -10.543,-1.152 -10.546,-5.821 0,-3.882 7.642,-5.068 10.578,-5.181 4.604,-0.01 8.374,3.868 8.704,4.2 z m 5.085,33.314 0,0 c 3.78,3.292 8.575,4.703 14.244,4.308 -1.479,2.773 -4.297,4.556 -7.694,4.678 -5.583,0.161 -10.756,-3.775 -13.82,-10.543 l -0.895,-1.939 -0.299,2.095 c -0.811,5.435 6.8,17.863 18.96,24.456 -1.188,1.201 -2.923,2.036 -5.083,2.095 -4.317,0.151 -8.997,-2.183 -12.533,-6.261 l -0.621,-0.722 -0.408,0.869 c -0.704,1.47 0.218,3.169 1.211,4.976 0.777,1.402 1.557,2.852 1.557,4.175 0,0.923 -0.204,9.005 -7.207,13.435 -7.01,-4.425 -7.254,-12.502 -7.254,-13.43 0,-1.333 0.773,-2.773 1.548,-4.175 0.974,-1.812 1.882,-3.506 1.192,-4.976 l -0.404,-0.874 -0.622,0.727 c -3.511,4.053 -8.155,6.397 -12.458,6.29 -2.173,-0.073 -3.918,-0.884 -5.122,-2.11 12.081,-6.587 19.721,-18.996 18.974,-24.426 l -0.305,-2.154 -0.908,1.958 c -3.07,6.769 -8.26,10.719 -13.825,10.548 -3.394,-0.131 -6.165,-1.889 -7.624,-4.624 5.502,0.639 10.22,-0.567 13.941,-3.697 8.113,-6.788 9.144,-19.929 9.263,-22.722 l 7.162,-0.005 c 0.132,2.734 1.181,15.158 9.03,22.048 z m -31.735,-71.419 0,0 -0.068,0.058 -0.052,0.117 c -2.935,7.14 -5.447,10.969 -7.503,11.379 -1.209,0.229 -2.198,-0.767 -3.173,-1.729 l -0.258,-0.269 -0.455,-0.459 -0.446,0.459 c -5.35,5.304 -7.631,10.031 -7.628,15.788 l 0,0.494 0.491,0.127 c 6.827,1.719 11.469,5.347 12.711,9.913 0.703,2.593 0.171,5.147 -1.379,6.695 -2.378,2.393 -4.96,3.496 -7.485,3.223 -1.772,-0.181 -3.317,-1.245 -4.621,-2.7 2.285,0.014 4.502,-0.884 5.623,-2.418 0.95,-1.304 0.957,-2.896 0.034,-4.463 -1.14,-1.597 -2.491,-2.451 -4.097,-2.603 -3.631,-0.307 -7.628,3.218 -10.319,5.894 -2.844,2.828 -5.68,7.682 -3.624,14.821 -3.369,0.122 -5.642,-0.605 -6.714,-2.256 -2.698,-4.18 2.324,-13.473 4.725,-17.897 0.41,-0.738 0.734,-1.363 0.993,-1.876 l 0.415,-0.82 -0.927,-0.068 c -7.63,-0.635 -11.274,1.592 -12.973,3.569 -1.712,1.968 -2.103,4.307 -1.903,6.119 -1.857,-0.259 -4.846,-1.66 -4.849,-8.169 -0.002,-6.578 8.659,-6.578 11.486,-6.583 0.655,0 1.39,0.087 2.083,0.151 1.711,0.2 3.323,0.361 4.305,-0.522 0.517,-0.474 0.794,-1.168 0.794,-2.095 -0.003,-3.751 -7.304,-4.777 -11.089,-4.928 1.583,-3.965 3.544,-6.295 5.873,-6.827 4.407,-0.996 9.657,4.19 13.861,8.336 l 0.45,0.44 0.422,0.429 0.455,-0.429 c 0.996,-0.992 9.855,-12.224 8.512,-18.997 -1.044,-6.607 2.441,-13.317 5.518,-19.241 0.617,-1.142 1.164,-2.222 1.687,-3.262 1.228,-2.534 2.026,-2.646 2.254,-2.632 0.669,0.059 1.369,1.533 1.651,2.505 l 0.036,0.166 0.136,0.127 c 0.928,1.226 5.958,18.714 5.048,20.433 z m -44.438,41.45 0,0 c 0.21,-1.157 0.662,-2.515 1.634,-3.502 0.603,-0.62 1.417,-1.001 2.307,-1.225 -1.753,1.245 -3.054,2.832 -3.941,4.727 z m -16.63,-39.331 0,0 c 2.967,-9.982 6.356,-19.993 7.467,-21.057 0.259,0.053 0.681,0.229 0.998,0.859 0.75,1.436 1.39,6.3 -8.465,20.198 z m 32.799,-14.259 0,0 c 2.108,-4.948 4.718,-14.968 3.974,-20.037 -0.369,-2.501 -1.19,-5.494 -3.028,-5.655 -1.465,-0.117 -2.798,1.689 -4.007,5.386 -10.707,34.287 -19.319,34.536 -24.314,33.496 3.759,-2.838 8.054,-9.596 10.037,-21.185 2.417,-16.965 0.845,-20.378 -0.537,-21.472 -0.493,-0.391 -1.331,-0.742 -2.588,-0.244 -3.214,1.269 -7.418,13.615 -13.437,32.289 -2.796,8.702 -5.444,16.906 -7.398,21.15 -8.131,16.833 -17.204,25.682 -25.5521,24.871 -6.1367,-0.606 -11.3199,-6.553 -14.0087,-15.939 8.3293,1.421 15.5568,-0.245 21.4548,-5.103 17.227,-14.196 18.557,-50.646 18.552,-61.478 l 0,-0.088 c 0,-3.184 -0.715,-5.064 -2.007,-5.293 -1.04,-0.181 -1.999,0.747 -2.656,2.544 -12.155,34.677 -25.9207,37.729 -31.2758,37.451 -5.2371,-0.298 -9.1761,-3.756 -10.5579,-7.242 4.857,1.347 9.1758,0.786 12.8072,-1.812 11.9855,-8.614 12.5405,-35.278 12.5405,-35.551 -0.003,-2.979 -0.432,-4.444 -1.416,-4.835 -0.936,-0.4 -1.898,0.386 -2.5296,1.021 -5.9042,6.929 -11.3199,9.825 -15.6691,8.468 -4.1559,-1.309 -6.2869,-5.924 -6.9345,-9.21 3.607,1.792 6.835,2.012 9.5793,0.463 8.8685,-4.995 9.9594,-26.458 10.0864,-32.924 -0.002,-6.724 4.1495,-14.728 10.0865,-19.465 3.226,-2.569 8.388,-5.303 14.767,-3.809 6.625,1.846 10.791,5.22 12.399,9.996 2.757,8.341 -2.939,18.416 -5.398,21.604 l -0.283,0.367 0.254,0.376 c 10.252,14.616 48.016,17.414 55.109,17.824 -4.132,6.046 -10.109,5.099 -19.739,3.419 l -2.662,-0.449 c -13.356,-2.252 -27.624,-11.906 -33.152,-15.955 -8.1,-5.948 -9.145,-11.149 -9.145,-15.011 0,-0.703 0.139,-0.894 0.146,-0.918 0.621,0.005 2.999,2.666 4.398,7.95 l 0.29,1.05 0.767,-0.767 c 2.328,-2.29 2.171,-4.283 2.005,-6.583 -0.054,-0.669 -0.096,-1.338 -0.096,-2.06 -0.002,-1.07 0.125,-1.265 0.157,-1.285 0.198,-0.058 0.945,0.259 1.494,0.488 0.684,0.288 1.522,0.645 2.53,0.933 l 0.789,0.22 -0.003,-0.835 c 0,-2.764 -3.399,-6.998 -6.409,-8.16 -0.576,-1.548 -0.018,-3.58 0.51,-5.367 0.342,-1.187 0.654,-2.315 0.654,-3.253 l 0,-0.644 -0.622,-0.01 c -2.051,0 -2.703,1.485 -3.993,4.42 -0.474,1.123 -1.099,2.529 -1.94,4.185 -2.623,-1.255 -3.346,-2.735 -4.039,-4.293 -0.415,-0.976 -0.85,-1.973 -1.741,-2.876 l -0.447,-0.43 -0.447,0.449 c -0.899,0.894 -1.011,2.857 -1.011,3.941 0.003,2.217 0.562,5.147 1.776,6.329 1.54,1.548 2.304,2.349 2.334,4.009 -6.396,11.975 12.494,24.715 23.864,32.348 13.433,9.054 32.581,9.044 39.803,9.044 l 0.222,-0.005 c 1.128,0 1.836,0.044 2.259,0.088 -0.269,0.156 -0.574,0.357 -0.818,0.503 -0.801,0.474 -1.724,1.031 -2.364,1.651 l -0.054,0.064 -0.036,0.068 c -1.448,2.432 -2.632,3.589 -3.914,3.765 -1.397,0.171 -3.14,-0.835 -5.638,-3.321 l -0.579,-0.596 -0.41,0.747 c -1.374,2.511 -2.916,3.829 -4.583,3.946 -2.2,0.122 -4.774,-1.811 -7.608,-5.806 l -0.438,-0.591 -0.514,0.518 c -2.382,2.349 -4.132,3.408 -5.25,3.135 -1.314,-0.332 -2.039,-2.755 -2.797,-5.318 -0.172,-0.571 -0.356,-1.148 -0.551,-1.734 l -0.222,-0.747 -0.684,0.391 c -2.967,1.699 -4.915,2.275 -5.954,1.748 -1.124,-0.532 -1.434,-2.515 -1.817,-5.015 -0.088,-0.669 -0.199,-1.363 -0.345,-2.095 l -0.15,-0.84 -0.771,0.4 c -3.285,1.753 -5.449,2.32 -6.834,1.744 -1.567,-0.64 -2.37,-2.764 -3.332,-5.709 l -0.127,-0.381 -0.394,-0.054 c -6.497,-0.85 -7.784,-1.621 -7.786,-8.404 l 0,-0.869 -0.825,0.273 c -5.849,1.9 -7.299,0.259 -7.534,-0.098 l -0.002,-6.28 c 1.441,-1.103 2.213,-2.295 2.086,-3.55 -0.194,-1.812 -2.015,-3.189 -3.643,-3.877 -0.967,-0.396 -1.671,-0.161 -2.074,0.097 -1.351,0.796 -1.591,2.989 -1.62,3.238 0,0.059 -0.352,15.593 -0.352,15.593 l 0,0.576 0.574,0.059 7.781,0.849 0.003,6.451 0,0.645 0.635,0.01 9.522,-0.005 0.005,10.905 0,0.966 0.869,-0.39 9.638,-4.185 2.019,8.995 0.156,0.806 0.745,-0.371 7.887,-4.029 1.935,5.987 0.23,0.64 0.6,-0.245 9.028,-3.55 3.052,6.998 0.269,0.635 0.605,-0.332 9.071,-4.869 6.392,4.82 0.42,0.312 0.379,-0.371 c 0.074,-0.088 1.858,-1.963 4.835,-7.212 4.7,14.445 -8.09,31.175 -15.318,37.373 z m 31.303,-53.005 0,0 c 1.659,3.999 3.181,8.927 3.211,8.995 l 0.709,2.256 0.519,-2.31 c 0.015,-0.092 1.998,-8.687 4.454,-11.827 2.764,3.198 7.34,11.886 7.379,11.974 l 1.172,-0.323 c 0,-0.058 -0.145,-6.328 3.401,-10.362 0.849,0.918 1.673,2.007 2.525,3.135 2.11,2.837 4.3,5.777 6.751,5.777 l 0.631,0.005 0,-0.64 c 0,-5.298 1.016,-7.808 1.559,-8.8 l 6.393,6.315 c 0.854,1.269 -1.148,13.473 -4.26,17.692 -3.467,-7.017 -6.579,-11.481 -7.868,-12.746 l -0.447,-0.439 -0.44,0.439 c -0.592,0.606 -0.928,1.925 -1.334,3.77 -0.594,2.623 -1.471,6.09 -3.448,7.907 -1.881,-2.081 -2.985,-4.268 -3.893,-6.227 -0.828,-1.743 -1.541,-3.247 -2.659,-4.38 l -0.601,-0.576 -0.402,0.742 c -1.187,2.188 -1.749,4.302 -2.25,6.192 -0.429,1.621 -0.876,2.94 -1.538,3.902 l -6.902,-6.837 -1.616,-1.582 -1.08,-1.064 0,1.513 c 0,5.094 -0.441,7.345 -0.734,8.317 -1.465,-1.47 -5.253,-5.777 -7.153,-12.536 1.356,-0.982 5.854,-4.464 7.921,-8.282 z m -3.418,-8.009 0,0 0,0.161 c 0.01,2.188 0.022,3.902 -0.764,4.688 -0.257,0.244 -0.769,0.288 -1.209,0.366 0.12,-2.925 0.83,-4.312 1.426,-4.907 0.225,-0.171 0.384,-0.225 0.547,-0.308 z m 6.859,-14.02 0,0 c 4.209,-6.266 9.755,-18.899 -0.371,-33.056 l -0.037,-0.044 -0.034,-0.039 c -2.107,-2.095 -3.546,-2.701 -4.249,-2.891 l -0.671,-2.779 -0.12,-0.483 -0.488,0 c -1.062,0.004 -5.408,1.176 -7.716,2.271 -0.183,-0.914 -0.352,-2.579 0.667,-3.8 1.289,-1.558 4.185,-2.017 8.367,-1.323 l 0.062,0 0.034,0 c 1.465,0 1.821,-1.304 2.188,-2.569 0.278,-0.957 0.62,-2.173 1.447,-3.296 2.603,-3.502 6.012,-3.521 10.365,-2.481 3.763,0.952 10.626,3.687 14.175,6.822 5.212,4.6 6.101,10.451 6.184,15.261 -2.033,-0.884 -3.658,-1.192 -4.791,-0.65 -0.989,0.469 -1.615,1.446 -1.949,3.004 -1.948,9.386 -0.397,19.235 4.396,27.713 4.612,7.852 5.919,13.561 6.273,16.774 -0.952,-1.245 -1.788,-2.602 -2.514,-3.872 -1.346,-2.325 -2.293,-3.999 -3.592,-3.999 l -0.407,0.004 -0.168,0.337 c -1.574,2.945 -3.235,6.266 -2.865,9.635 -3.384,-1.372 -6.482,-3.565 -6.656,-10.445 l -1.22,-0.191 -0.963,2.657 c -1.395,3.833 -2.76,7.594 -3.628,9.259 -3.491,-7.086 -5.49,-9.123 -6.682,-10.333 l -0.599,-0.582 c -0.016,-0.029 -0.425,0.723 -0.425,0.723 -0.952,1.768 -1.818,3.145 -2.58,4.38 -1.003,1.583 -1.609,2.789 -1.983,3.946 -2.08,-3.34 -2.771,-4.321 -2.93,-4.488 -0.088,-0.2 -2.995,-6.05 3.48,-15.465 z m 139.599,62.625 0,0 c -5.01,-3.018 -8.12,-11.183 -8.257,-21.395 9.181,0.752 15.7,-0.83 19.3,-4.834 4.6,-5.147 3.643,-13.141 2.455,-18.704 l -0.199,-1.138 -0.827,0.826 c -3.828,3.804 -7.139,5.142 -9.893,4.004 -6.665,-2.798 -8.853,-19.685 -8.859,-25.213 -0.703,-14.098 -5.825,-24.602 -14.391,-29.535 -6.973,-4.058 -15.587,-4.029 -23.602,0.078 -4.934,2.554 -8.169,6.315 -9.601,11.203 -2.321,7.891 0.668,17.453 4.053,23.504 -17.238,13.893 -46.494,10.519 -50.832,9.928 -5.421,-9.694 -8.185,-20.12 -8.191,-30.971 l 0,-0.215 c 0,-1.274 0.349,-2.08 1.041,-2.446 1.983,-1.08 6.612,1.474 8.232,2.558 l 0.785,-0.991 c -0.063,-0.049 -4.034,-3.902 -10.005,-20.246 -3.647,-8.122 -14.401,-11.662 -18.827,-12.819 -8.534,-2.911 -13.942,-0.689 -17.531,7.212 -0.271,0.64 -2.359,0.772 -4.049,0.884 -2.476,0.152 -5.3,0.337 -6.7,1.812 -3.648,3.921 -0.561,12.995 -0.42,13.376 l 0.262,0.757 0.656,-0.43 c 0.081,-0.029 6.713,-4.161 11.613,-1.563 3.387,1.783 5.245,6.334 5.507,13.522 0.004,5.792 -4.945,15.486 -15.134,29.604 -4.32,0.596 -33.455,4.033 -50.717,-9.904 3.331,-6.055 6.292,-15.637 3.976,-23.533 -1.426,-4.869 -4.664,-8.624 -9.616,-11.168 -7.535,-3.873 -16.377,-3.512 -23.673,0.971 -9.7396,5.973 -15.3115,18.337 -15.3038,33.945 0.0019,4.791 -2.6496,18.406 -8.6318,20.608 -2.8424,1.05 -6.1874,-0.654 -9.9058,-5.069 l -0.8545,-0.996 -0.252,1.274 c -1.3087,6.422 -0.1435,15.266 5.406,20.506 2.9252,2.798 8.3214,5.567 17.295,3.438 -0.159,10.148 -3.2599,18.283 -8.2362,21.272 -3.3159,2.002 -7.3371,1.738 -12.0086,-0.742 l -1.1153,-0.596 0.1953,1.255 c 1.4524,9.303 5.0367,15.222 10.3921,17.111 7.2664,2.559 17.6706,-2.221 30.9046,-14.03 -3.392,15.105 -7.372,31.84 -17.2798,36.963 -4.5709,2.349 -10.0042,2.144 -16.6183,-0.635 l -1.011,-0.434 0.1565,1.093 c 1.8184,12.834 6.3873,21.717 12.8795,25.008 4.5298,2.305 9.7861,1.87 15.6321,-1.28 15.446,-8.335 23.682,-33.929 24.038,-35.023 0.117,-0.469 0.276,-0.938 0.418,-1.406 l 0.207,0.214 c 2.486,2.476 6.054,3.595 9.821,3.092 4.966,-0.689 9.461,-4.01 12.35,-9.108 1.677,-3.526 2.925,-6.514 4.016,-9.156 0.931,-2.193 1.729,-4.039 2.572,-5.724 -0.531,4.298 -2.049,8.561 -4.462,12.053 l 0.062,-0.103 c -0.804,0.791 -0.96,1.445 -0.513,1.914 1.392,1.422 10.887,-2.92 12.748,-4.717 0.39,-0.396 1.025,-0.435 1.592,-0.117 1.391,0.771 2.41,3.472 1.157,8.727 -2.026,8.335 -4.353,10.987 -6.832,13.546 -1.924,-1.807 -9.923,-8.746 -16.474,-6.319 -4.124,1.504 -6.578,6.466 -7.333,14.679 -4.67,4.752 -8.008,12.634 -5.566,17.835 1.228,2.592 4.402,5.498 12.545,4.746 -0.147,0.796 -0.325,1.563 -0.357,2.432 l 0,0.034 0.01,0.039 c 0.479,5.88 2.366,9.884 5.58,11.882 3.43,2.124 8.284,1.953 14.396,-0.508 l 0.676,-0.278 -0.366,-0.64 c -1.636,-2.803 -5.074,-8.644 -3.587,-11.862 0.506,-1.089 1.599,-1.743 3.214,-2.095 0.31,0.327 0.617,0.664 0.972,1.094 2.114,2.481 5.261,6.226 10.071,5.147 7.783,-1.856 11.745,-5.225 11.74,-10.055 -0.002,-5.362 -1.363,-10.992 -10.836,-15.837 0.159,-3.902 2.503,-5.269 6.065,-7.222 3.492,-1.919 7.802,-4.278 11.313,-10.055 -0.01,0.019 0.347,-0.518 0.347,-0.518 0.156,-0.215 0.468,-0.61 0.825,-0.62 0.31,0 0.7,0.308 1.101,0.85 -0.012,-0.015 0.483,0.796 0.483,0.796 5.343,7.838 6.793,21.189 5.291,22.454 -0.276,0.224 -0.9,0.625 -1.628,1.084 -3.06,1.856 -8.703,5.293 -8.367,9.395 0.224,2.696 2.863,5.03 8.118,7.14 l 0.109,0.053 c 0.633,0.621 0.889,5.441 -1.55,11.462 -2.386,5.889 -7.599,13.317 -21.934,11.91 l -0.92,-0.102 0.249,0.879 c 2.703,9.547 6.006,14.274 16.343,14.748 -5.26,4.156 -11.12,7.262 -11.187,7.296 l -0.392,0.195 0.065,0.454 c 0,0.088 1.561,9.186 15.82,9.42 0.435,6.603 7.584,12.658 12.402,16.707 l 0.417,0.366 0.41,-0.366 c 4.819,-4.039 11.97,-10.085 12.369,-16.716 14.318,-0.245 15.841,-9.352 15.857,-9.435 l 0.074,-0.449 -0.412,-0.201 c -0.058,-0.029 -5.903,-3.135 -11.163,-7.281 10.353,-0.478 13.654,-5.21 16.297,-14.763 l 0.228,-0.879 -0.912,0.103 c -14.371,1.416 -20.882,-6.046 -23.259,-11.974 -2.399,-6.021 -0.822,-10.831 -0.193,-11.374 l 0.097,-0.049 c 5.233,-2.124 7.884,-4.453 8.107,-7.149 0.32,-4.117 -5.376,-7.554 -8.409,-9.41 -0.753,-0.439 -1.368,-0.83 -1.624,-1.055 -1.519,-1.269 -0.041,-14.655 5.249,-22.439 0.018,-0.02 0.469,-0.742 0.746,-1.167 l 1.879,0.186 0.196,0.268 c 3.438,5.802 7.786,8.072 11.259,9.87 3.67,1.924 6.102,3.271 6.229,7.569 -9.462,4.844 -10.829,10.48 -10.827,15.846 0,4.825 3.961,8.194 11.791,10.041 4.799,1.084 7.953,-2.662 10.04,-5.133 0.365,-0.454 0.67,-0.786 0.976,-1.113 1.62,0.346 2.692,1.006 3.204,2.095 1.49,3.228 -2.047,9.273 -3.557,11.866 l -0.364,0.635 0.682,0.278 c 6.212,2.53 11.119,2.652 14.576,0.386 3.448,-2.261 5.296,-6.871 5.503,-13.707 l 0,-0.074 -0.022,-0.048 c -0.029,-0.157 -0.097,-0.264 -0.138,-0.43 7.925,0.639 11.046,-2.217 12.248,-4.786 2.402,-5.191 -0.956,-13.077 -5.614,-17.805 -0.77,-8.219 -3.223,-13.185 -7.347,-14.674 -5.68,-2.076 -12.982,3.008 -16.45,6.333 -2.578,-2.632 -4.832,-5.21 -6.844,-13.546 -1.268,-5.255 -0.246,-7.936 1.129,-8.722 0.578,-0.322 1.217,-0.283 1.613,0.107 1.864,1.846 11.49,6.339 12.873,4.923 0.698,-0.732 -0.219,-1.685 -0.59,-2.051 -2.416,-3.462 -3.93,-7.706 -4.446,-12.013 0.782,1.665 1.59,3.438 2.477,5.572 1.118,2.661 2.377,5.704 4.095,9.263 2.885,5.123 7.377,8.434 12.347,9.128 3.789,0.503 7.38,-0.616 9.876,-3.101 l 0.176,-0.176 c 0.133,0.449 0.273,0.903 0.42,1.352 0.338,1.114 8.601,26.693 24.085,35.024 5.821,3.145 11.042,3.565 15.578,1.275 6.515,-3.306 11.082,-12.194 12.902,-25.023 l 0.147,-1.098 -1.02,0.439 c -6.622,2.779 -12.062,2.984 -16.623,0.635 -9.913,-5.123 -13.885,-21.858 -17.303,-36.958 13.269,11.818 23.671,16.584 30.928,14.016 5.362,-1.895 8.936,-7.823 10.392,-17.127 l 0.156,-1.235 -1.08,0.591 c -4.682,2.461 -8.746,2.715 -12.043,0.723 z m -124.377,200.107 0,0 -0.338,0 -21.831,0.362 12.712,-28.914 c 0,0 0.688,-2.478 2.326,0 l 7.131,28.503 -0.02,0 0.02,0.049 z"
         id="path18"
         inkscape:connector-curvature="0" />
    </g>
  </g>
  <g
     id="g20"
     transform="translate(-70.874957,-416.64006)" />
</svg>
